<mxfile host="app.diagrams.net" agent="Mozilla/5.0 (Macintosh; Intel Mac OS X 10_15_7) AppleWebKit/605.1.15 (KHTML, like Gecko) Version/18.4 Safari/605.1.15" version="26.2.14">
  <diagram name="Page-1" id="ee-4UofnJ19UMhd_-ugs">
    <mxGraphModel dx="1394" dy="759" grid="1" gridSize="10" guides="1" tooltips="1" connect="1" arrows="1" fold="1" page="1" pageScale="1" pageWidth="827" pageHeight="1169" math="0" shadow="0">
      <root>
        <mxCell id="0" />
        <mxCell id="1" parent="0" />
        <mxCell id="d4vqSrKACNZoaVYgLxBN-1" value="Redis" style="image;sketch=0;aspect=fixed;html=1;points=[];align=center;fontSize=12;image=img/lib/mscae/Cache_Redis_Product.svg;" vertex="1" parent="1">
          <mxGeometry x="490" y="270" width="50" height="42" as="geometry" />
        </mxCell>
        <mxCell id="d4vqSrKACNZoaVYgLxBN-2" value="Postgres" style="image;aspect=fixed;html=1;points=[];align=center;fontSize=12;image=img/lib/azure2/databases/Azure_Database_PostgreSQL_Server.svg;" vertex="1" parent="1">
          <mxGeometry x="230" y="259" width="48" height="64" as="geometry" />
        </mxCell>
        <mxCell id="d4vqSrKACNZoaVYgLxBN-4" style="edgeStyle=orthogonalEdgeStyle;rounded=0;orthogonalLoop=1;jettySize=auto;html=1;" edge="1" parent="1" source="d4vqSrKACNZoaVYgLxBN-3" target="d4vqSrKACNZoaVYgLxBN-2">
          <mxGeometry relative="1" as="geometry" />
        </mxCell>
        <mxCell id="d4vqSrKACNZoaVYgLxBN-3" value="" style="shape=image;verticalLabelPosition=bottom;labelBackgroundColor=default;verticalAlign=top;aspect=fixed;imageAspect=0;image=data:image/png,iVBORw0KGgoAAAANSUhEUgAABPgAAAGwCAYAAAA0dNs8AAAACXBIWXMAAAsTAAALEwEAmpwYAAAFyWlUWHRYTUw6Y29tLmFkb2JlLnhtcAAAAAAAPD94cGFja2V0IGJlZ2luPSLvu78iIGlkPSJXNU0wTXBDZWhpSHpyZVN6TlRjemtjOWQiPz4gPHg6eG1wbWV0YSB4bWxuczp4PSJhZG9iZTpuczptZXRhLyIgeDp4bXB0az0iQWRvYmUgWE1QIENvcmUgNy4xLWMwMDAgNzkuZWRhMmIzZiwgMjAyMS8xMS8xNC0xMjozMDo0MiAgICAgICAgIj4gPHJkZjpSREYgeG1sbnM6cmRmPSJodHRwOi8vd3d3LnczLm9yZy8xOTk5LzAyLzIyLXJkZi1zeW50YXgtbnMjIj4gPHJkZjpEZXNjcmlwdGlvbiByZGY6YWJvdXQ9IiIgeG1sbnM6eG1wPSJodHRwOi8vbnMuYWRvYmUuY29tL3hhcC8xLjAvIiB4bWxuczp4bXBNTT0iaHR0cDovL25zLmFkb2JlLmNvbS94YXAvMS4wL21tLyIgeG1sbnM6c3RFdnQ9Imh0dHA6Ly9ucy5hZG9iZS5jb20veGFwLzEuMC9zVHlwZS9SZXNvdXJjZUV2ZW50IyIgeG1sbnM6ZGM9Imh0dHA6Ly9wdXJsLm9yZy9kYy9lbGVtZW50cy8xLjEvIiB4bWxuczpwaG90b3Nob3A9Imh0dHA6Ly9ucy5hZG9iZS5jb20vcGhvdG9zaG9wLzEuMC8iIHhtcDpDcmVhdG9yVG9vbD0iQWRvYmUgUGhvdG9zaG9wIDIzLjEgKFdpbmRvd3MpIiB4bXA6Q3JlYXRlRGF0ZT0iMjAyMi0xMS0yN1QwMTozMjowNCswMTowMCIgeG1wOk1ldGFkYXRhRGF0ZT0iMjAyMi0xMS0yN1QwMTozMjowNCswMTowMCIgeG1wOk1vZGlmeURhdGU9IjIwMjItMTEtMjdUMDE6MzI6MDQrMDE6MDAiIHhtcE1NOkluc3RhbmNlSUQ9InhtcC5paWQ6OGM3MzFkMzQtYjNlMC1mZjRmLWFhMDgtNjBkMWQ4NTNkMGYyIiB4bXBNTTpEb2N1bWVudElEPSJhZG9iZTpkb2NpZDpwaG90b3Nob3A6Nzg1MDNlNzctYzFiNC1iNTQzLTlhMjQtODI2YTkwNTlmNDRiIiB4bXBNTTpPcmlnaW5hbERvY3VtZW50SUQ9InhtcC5kaWQ6ZTI3NDEzNzctYmYwYS0yMjRhLWFjMzUtOGE2Y2FmNTgxZjMwIiBkYzpmb3JtYXQ9ImltYWdlL3BuZyIgcGhvdG9zaG9wOkNvbG9yTW9kZT0iMyI+IDx4bXBNTTpIaXN0b3J5PiA8cmRmOlNlcT4gPHJkZjpsaSBzdEV2dDphY3Rpb249ImNyZWF0ZWQiIHN0RXZ0Omluc3RhbmNlSUQ9InhtcC5paWQ6ZTI3NDEzNzctYmYwYS0yMjRhLWFjMzUtOGE2Y2FmNTgxZjMwIiBzdEV2dDp3aGVuPSIyMDIyLTExLTI3VDAxOjMyOjA0KzAxOjAwIiBzdEV2dDpzb2Z0d2FyZUFnZW50PSJBZG9iZSBQaG90b3Nob3AgMjMuMSAoV2luZG93cykiLz4gPHJkZjpsaSBzdEV2dDphY3Rpb249InNhdmVkIiBzdEV2dDppbnN0YW5jZUlEPSJ4bXAuaWlkOjhjNzMxZDM0LWIzZTAtZmY0Zi1hYTA4LTYwZDFkODUzZDBmMiIgc3RFdnQ6d2hlbj0iMjAyMi0xMS0yN1QwMTozMjowNCswMTowMCIgc3RFdnQ6c29mdHdhcmVBZ2VudD0iQWRvYmUgUGhvdG9zaG9wIDIzLjEgKFdpbmRvd3MpIiBzdEV2dDpjaGFuZ2VkPSIvIi8+IDwvcmRmOlNlcT4gPC94bXBNTTpIaXN0b3J5PiA8L3JkZjpEZXNjcmlwdGlvbj4gPC9yZGY6UkRGPiA8L3g6eG1wbWV0YT4gPD94cGFja2V0IGVuZD0iciI/Pu34/CAAAJmVSURBVHic7N13fJRV2sbxX0IQ21piryi6lhcLDr06rg0GpIw6ooi4iL33srv23nVVrFgQxShDH4qgI9LFiKu4q4sdy1piF5Ekz/vHM4NDSCDlnKfMXN/PB4VkuM89yWR45ppTihzHQURERERERERERMKp2O8GREREREREREREpPEU8ImIiIiIiIiIiISYAj4REREREREREZEQU8AnIiIiIiIiIiISYgr4REREREREREREQkwBn4iIiIiIiIiISIgp4BMREREREREREQkxBXwiIiIiIiIiIiIhpoBPREREREREREQkxBTwiYiIiIiIiIiIhJgCPhERERERERERkRBTwCciIiIiIiIiIhJiCvhERERERERERERCTAGfiIiIiIiIiIhIiCngExERERERERERCTEFfCIiIiIiIiIiIiGmgE9ERERERERERCTEFPCJiIiIiIiIiIiEmAI+ERERERERERGREFPAJyIiIiIiIiIiEmIK+EREREREREREREJMAZ+IiIiIiIiIiEiIKeATEREREREREREJMQV8IiIiIiIiIiIiIaaAT0REREREREREJMQU8ImIiIiIiIiIiISYAj4REREREREREZEQU8AnIiIiIiIiIiISYgr4REREREREREREQkwBn4iIiIiIiIiISIgp4BMREREREREREQkxBXwiIiIiIiIiIiIhpoBPREREREREREQkxBTwiYiIiIiIiIiIhJgCPhERERERERERkRBTwCciIiIiIiIiIhJiCvhERERERERERERCTAGfiIiIiIiIiIhIiCngExERERERERERCTEFfCIiIiIiIiIiIiGmgE9ERERERERERCTEFPCJiIiIiIiIiIiEmAI+ERERERERERGREFPAJyIiIiIiIiIiEmIK+EREREREREREREJMAZ+IiIiIiIiIiEiIKeATEREREREREREJMQV8IiIiIiIiIiIiIaaAT0REREREREREJMQU8ImIiIiIiIiIiISYAj4REREREREREZEQU8AnIiIiIiIiIiISYgr4REREREREREREQkwBn4iIiIiIiIiISIgp4BMREREREREREQkxBXwiIiIiIiIiIiIhpoBPREREREREREQkxBTwiYiIiIiIiIiIhJgCPhERERERERERkRBTwCciIiIiIiIiIhJiJX43IOKFfQ+9qwicHYHtM7+2cBxnc2ATYHNwNgBaZG6+OTg47u9/xHEAVmR+/QDOzw58CXwLzsfAf96ZednPnt4hEREREREREZGMIsdx/O5BxKj9Dr17Z+AAYA8HZ3fcQA9w+uTebvXHfs2fA+ePj6zxM5LzOfd304CVOM6od166fHTTuhcRERERERERaRgFfBJq+x9278YOTlegDbAvjrNp5lN9YPUormaIZzDgy95uGvDNOy9dfnwD7oKIiIiIiIiISJMo4JPQ2f+we3cHDgW6Ahs7OP1WfbLG49njgA9gmgNX/Puly8vXcTdERERERERERIzQHnwSeG0Ov29nx3EOAzoDW2Q+3G8tf8VPhwOfAif73YiIiIiIiIiIFAYFfBJIbQ6/f1dwEkB73MdpUAO92uzkdwMiIiIiIiIiUji0RFcCo83h928PJIBuQAk5S2/XtpzWWXOZbO2f82aJLo576MYJ/37p8q8QEREREREREbFMM/jEVwcc/kA21OsMtCBcM/XqcjiwM6CAT0RERERERESsU8Anvjig5/DOwKnAJsAAn9uxodrvBkRERERERESkMCjgE88c0PPBbcA5EeiY+VA+BnvgLtH9xu8mRERERERERKQwKOAT6yI9H+yKe6psvs7WW8O/X7r8E797EBEREREREZHCoIBPrIj0fGh94BSgB1BMgQR7Gd/53YCIiIiIiIiIFA4FfGJUpNfDLXGcM4HdKaxQL1fK7wZEREREREREpHAo4BMj2vZ6eH/gLGALCjfYA0gVFxc963cTIiIiIiIiIlI4FPBJk7Tt9cj+wPnAxsCRPrfjt2nAvUtmXFbpdyMiIiIiIiIiUjgU8EmjtO31SFvgXGBDFOyBG+5Neuely6f53YiIiIiIiIiIFBYFfNIg7Xo92t5xg731UbCXNQ14+J2XLk/63YiIiIiIiIiIFB4FfFIv7WKP7YXjXAxsioI9cEO9lcA8YPg7My/TybkiIiIiIiIi4gsFfLJW7WKP7QJcAmxN4QV72dNwVwJfA58DnwIfAv96Z+alX/vVmIiIiIiIiIhIlgI+qVW72IitgYuAVuR/sJcCqnEDvA+Apbgh3vtLZlz8g5+NiYiIiIiIiIisiwI+WU2nIx4vqqpyLgHak3/B3qTM/38A3gGW4AZ6/3l7xkUrfetKRERERERERKQJFPDJKu1jjx8AziXAQL97MWQS8CvwHrAYmPvWixd84WtHIiIiIiIiIiKGKeAT2sce3wq4BtgCSPjcTlNMAn7GnZk3C1j41ovn/+ZvSyIiIiIiIiIidingK3Dtez/RFxhEOIO98UAl8BqwCJj9rxfPW+FvSyIiIiIiIiIi3lLAV6A69H5iZweuBTYgXOHeeOB7YC6QenP6Ocv8bUdERERERERExF8K+ApQh95PHAUcTXiCvfHAx8CLwIw3p5+jZbciIiIiIiIiIhkK+ApIh95P7g5cCbQg+OFedqbei8CYN6efrVBPRERERERERKQWCvgKRIfeTx4NHEWwg73xwHLgZeD5xdPO+s7nfkREREREREREAk8BX57r0Pup7YCbCPZee2NxT759aPG0M7WnnoiIiIiIiIhIAyjgy2Mdej91EHAawQz2xgIrgWnAqDemnaHTb0VEREREREREGkEBXx7q0m/UBlWVVTcD2xK8cG8s8CXwwBtTT3/b72ZERERERERERMJOAV+e6dhn5D7AZcAgv3upYSzwOXDbG1NP/9jvZkRERERERERE8oUCvjzSsc/IQ4GhwEC/e8kxFlgK3PvG1NO0v56IiIiIiIiIiGEK+PJExz5PHwP0Jzjh3ljgPeCu8qmn/c/vZkRERERERERE8pUCvpDr2OfprXFPyd2QYIR72aW4N5RPPfULv5sREREREREREcl3CvhCrFOfp9sAlxKMYG8M8ANwR/nUU9/xuxkRERERERERkUKhgC+kOvUZdTAwDP/DvTHASuCe16ecMt/nXkRERERERERECo4CvhDq1GfUkcBRBCPce+T1KSdP87kPEREREREREZGCpYAvZDr1GXU80Bt/w70xwKfAla9POfknH/sQERERERERESl4CvhCouuAZzeqqnTuBjbGv3BvDPArcNvrU05+y6ceREREREREREQkhwK+EOjS79mtqqudO4DBPrYxBhixaMqwlI89iIiIiIiIiIhIDQr4Aq7zEc/s5MBNwCCfWhgD/AxcuWjKsE986kFEREREREREROqggC/AOh/x7J+Bq/A33BuxKHWSZu2JiIiIiIiIiASUAr6A6nzEs/sAl+FPuFcGLAeuXJQ6SbP2REREREREREQCTAFfAHU+4tl2wHn4F+6NXJQaOsmHsUVEREREREREpIEU8AVM5yNGt8W/cG8UcP1rqaH/8WFsERERERERERFpBAV8AdL5iNEHAOfjfbhXBnxZ0qz4onkTh6z0eGwREREREREREWkCBXwB0fmI0fsBF+JPuPfYa6m/Tvd4XAmY3XpcsQE47YGtgGaO46wElgL//uDVmyv97U5ERERERERE6lLkOI7fPRS8Ln2fa+04zuWsCvdyvyfOan/CWcvncv/krOVzmd877pLcK1+bfOIHjetc8sFuPa7ojLssfGtwotmP5zw3zAI+BOfxD1695RXPGxQRERERERGRtVLA57MufZ9rCdzgOE7OzD3rAV8Z8H2zZs3OnTdh8G+NalxCb6+/XLnxysrKB4EdgKj70T8eJ2s+NzizgGpgJjgPfPDqrRWeNCoiIiIiIiIia6WAz0fd+pdtWV3t3AkMdpw1Z9hlf2844CsD5/mFk098obF929Lm8Pu3AloBLYCV4Ly9eNpZP/ncVl5qfchVG674vfJ5Bye2+mfWGvDl/n6WA0uAKz989dZvbPUpIiIiIiIiIuumgM8nB8af32BlZfV9wFCoGaZYC/jKgPsXTh4yq9GNG3bA4Q/sBJwCtHZwioF+f3zWGQ+sAB5bPO0s7RFo0O49/vYQcErNR0kDAr7sn2YBs4uLiq5+f9YtOqBFRERERERExAcK+HxwcGJM0fLfKh/EDbYATwK+0cC1CycP+Xcj2zbqgJ7DdwQuw3G2BwbAmvcm5/6MdxynErj4zelnf+hdl/lp9x5/2w+4B4gaCPiyN04D9304+7Yx5joVERERERERkfpQwOeDLn3L7gHnnNyPWQ74RhUVcfGCSSd80dieTTmg5/Atgb8BLYEBufenHmHT6A3WLzlu/oTT9aBtgt17/O0pYDDU62te6+fqeFzOAlaAc8OHs2/XYRwiIiIiIiIiHlHA57EufcuOBAZA7qEa1gK+MuDHkpLic+aOP3550zpvmra9Hmpe7Th/B2dfMjP2ABoY8AGM2miDksFzxyvka4zdD/z7hjjOZDKHahgO+LJ/mOXAt8DVH82+/V9N7VlERERERERE1q7E7wYKSZe+ZVHccGvQOm5qwmhg2sLJJzzhwVhrFen54CHAacCRBsoN+mX5ym+Bcw3UKkQRVp2Ya02PzP+32qXbhW8VFxdf/MGs236xPKaIiIiIiIhIwSr2u4FC0bXv83vjHqjhVbg3zu9wL9LzoX0iPR96GjgDM+FeVsv9D7t3Q4P1CklLD8fqBpxeXV2d2qXbhb09HFdERERERESkoGgGnwe69XthS+ByMvueWTYaGLNg8gkveDBWrdr2engDx3GuAXYndzmuOf2AXoAOdGi4TXwYswdQvEu3C/+K45z90Zw7fd8LUkRERERERCSfaAafZQcdOabIcZyb8C7ce2HBpMG+hXuRXg/3cBxnJHAxdsK9VUNZrJ3PvvRp3G64szjLWna94FifehARERERERHJS5rBZ9nvK6tvAYZ5MNRo4LkFkwaP82CsNbTt9fAmwG3AVtgN9rL29GCMfPQOkMb+Pnx16QbQsusFR4Nzzsdz7lrmUx8iIiIiIiIieUMz+Czq2vf5g4FtPRhqNPCMf+HeI12BEcApeBPugcLpRln6yvXv+t0Dbsg3AHi2Zdfz+/rdjIiIiIiIiEjYKSSxpGu/F/YAhmB/aW4m3Dt+ouVx1tChz2MbVVVVXw/shNlDNMSuJfg3gy9XZjbf+f2alzQ7a+krty/3uyERERERERGRMNIMPgt6xMdsBFyBN+Hec36Ee217PdK6qqp6BHAe/oR7lT6MmS9uxl2mGwTdgKErK6tSLbued4DfzYiIiIiIiIiEkQI+C6qqnBtxZ+/Z5J6WO+n4cZbHWUPbXo/2B64BEl6PnSMIS01DaemsG5bhPn7SPreSKwrcu3PX82z/3IiIiIiIiIjknSLHcfzuIa907fdCT+A4YDA1vrYOzmp/Wu1zTl2fW/1vZWqOBibMnzTo2aZ3XH+d+ozYoLKq+m4HtgCnxqw954//rvGYctb47x+fcnJuVfvfc2+22tdkPPD3N6ef83aD7oCsZvcef3vOwdma1Zbr1vU1X/1zdTwua/ncmt/vOj/n/r15wHsbtGj+13dfuk1PTiIiIiIiIiL1oBl8BnXtN2ZXsuGePaOBKV6He+1ij/250l2Sewr+77f3o8K9pls664ZjgOkEayZfZ2DI8t9+n9ay63kt/W5GREREREREJAwU8BkSPTJZBPwd+/vufTd/0qCnLI+xmnaxx/4C3AQM9HLcOozH/TqLAe/PuvEm4EpgGsEK+g51HOfpnbuc29XvRkRERERERESCTgGfIZWVztXAUMvDPLle8+LzLI+xmnaxx44GzsD/WXvghns3vTn9nE/8biSfvD/rxlffn3VjT9zDN4IU9HUDbtu5y7mD/G5EREREREREJMi0B58B3fqNiQDnOTB4tX3FzO7BN6qoqOi8eROO/cZEz/XRLjZiGDg9yYZ7zlr20rO7B994x3GWAxe/Of3sZQ25D9Jwu/W4/BDgfMdxNgZ6/PEZT/bgq6Ue88AZ88nce++o1x0QERERERERKTAK+Jqoe//kxo7j3AcMWSPAMhfwjQaunD/xuP+a6HldOvd9YoOVldXDgY1XO0zDn4BvPPDY4mlnTWzIfZCma9X9soOAC4BNgB4+BnyAM8+BaZ/Ovfeaet8BERERERERkQKhgK+JuvUbcytwMdQSYJkJ+EY5cN/8icfNN9DuOnXs8/h21dXObQ4MWqMXbwO+8eAsA65ePO0sz2YtypoyQd/l4LRg1Yw+zwO+7Am7X260wXrH/Gfm7Ssbdi9ERERERERE8pcCvibo1i/ZFpxzyRysYSHgGwXOs/MmHjfZTMdr1z72+C7g3AQMrDWE8SbgGw8sB25ZPO3MxQ27B2JTq+6XHg+cTGY2nw8BX/b3L26w/npHvvfSHT81pH8RERERERGRfKWAr5G69x+7nuM4D4MzJPsxCwHfvfMmHnuugXbXqX3s8b2Bq8FJrN6dpwHfWODBxdPOnN7Q/sUbrbpfWgrcBM5eTu7+fN4GfAAzW6xXkliavquiYfdAREREREREJP/oFN1GchznH8CQdd6w8Z4sKSm+zGL9VdrHHt8fuBpIeDFeLcYCtxUVFR2rcC/YPnj1looPXr3lVOB03NmWs3xq5eAVv1eOadXjvG18Gl9EREREREQkMDSDrxG69UvuA1xCjVNzDc7gGwX8bd7EYz820vBatO/9xD64YWUity8PZ/CVATe9Me2MxQ3vXvy2a/dL3GW7jrPaabsezODLSq9X0uyo92fd/W3DOhcRERERERHJH5rB1zjnk9l3z4JRwHCPwr29gZxwz1NjgdtKmhWfoHAvvD589dangb/i32y+6O8rK5/7c/T8TX0YW0RERERERCQQNIOvgbr1H9sTxzmOVQGf0Rl8o4AJ8yYOLDPWcB069H5iVwduBhI1909bvTsrM/jKgFvemHp6eWP7l+DZtdvFxwGngtPDwxl82du+uOGGLfq9O/OO5Q3vXERERERERCTcNIOvAbr3H7sVMBB7s/cqvQj3Oh3x5NbAjXg/c28scH9Js+LjFe7lnw9n3/YMcAIwCZjt8fCH/vLrihc8HlNEREREREQkEBTwNcwV2DtYYxRwjaXaq3TpN3Kj6mrnTtyg0ktjgRFvTD39rNcmn7rS47HFIx/Ovu3jD2fffgQwDu9Dvi127HzmdR6PKSIiIiIiIuI7BXz11L3/2P2AzS2VHwWMnDdx4IeW6q9SWVl9LzDI9jg1lAF/e2PqaZM8Hld88tHs2+8AbsPbkK8jcOiOnc/05PRpERERERERkaAo8buBEDkXe7P3vp83ceA0S7VX6dD7yROBjW2Pk2Ms8GVJs+ILFk4+5TcPx7Xu/w6+ZROgJTgtgW2BTXCczYHNHdgEaJHZK25DoDk4K4FfM7vHLcdxfga+A34E5yvgawc+BZa++/I/8mIfuY9m3z5hl24Xvg08CBzq0bAdAXbsfOa3y+bd/4hHY4qIiIiIiIj4Sods1EP3/mMPxZ31NmTNQySafMjGKODMuROO+cFUv7Xp0PvJOHAMkFijUzuHbIwFni+feuqzTW7eR60PuW1THGdf4P+APYHdwGnuQDPg8Lq/Pqv/rgFf8xczv/sVeA/H+Q+wBFjybvqqn43cKY/tdfBlRb+tWPkosAeO083SIRs1v8ILwLlq2bwHrAfnIiIiIiIiIn5TwLcO3fuP+xM4/yQze89wwDcKeGTuhGNeMdjyGjr0fuogcE5j1aEa1gO+scAj5VNPndLU3r22zyG3bw1EwYk4sBfQHMeJrX6rOsImMwFfrTWBFx1YCc5ioByY/V766v/V5z4FxS7dLjwFxxnsQDf3I1YDPsBZAAxZNu+Bd5vQtoiIiIiIiEjgKeBbh+79x10JzqrDLwwHfMPnTjjmDGPN1qJD76f2Bq4GJ+fEXKsB31gc55byqacuaFrn3tnnkDvagDMA2B9oDsQaFTbZDfhq3momOMuBBcC499LXvF3LXQucXbpe0MeBS4FuHgR8ALPWa14S+2DWvb80qXERERERERGRAFPAtxbd+4/bHrgRnCHZjxkM+EYBF86dcIy1WVid+z69flVV9aPAIJNh01oCvjIHLi+fcsoHTWzdun0PvbOd4zgnAru6H1nLLL1gBny5v5+Z+Tl+E3jyv69c+y8CrGXXCzoAd4DTbfXPWAn4AMYsm/fAUY3vWERERERERCTYFPCtRff+424FLl4jeml6wDcKnCfnTjjmRZP91tSh91MPAKfndpf7e8MB3+hmzYrPXThp2FdNatqifQ+9sxXuUusIgOM4ff74rIHZZP4FfOT8HM/MfOQtYPh/X7nuPQJol24X/tlxqh8FevzxUWsB3wIHRn4274H7m9a1iIiIiIiISDAp4KtD9/7jdgP+AQyxEPA9OndC4mSD7a6hY++n+jvuoRoDc7vL/b3BgG9085Kis+dPHPZNU/u2Yd9D7zoYOAWcDYFVoZ5Tx/cx++eQBny5n5sJfOvgDF/6yvVpAqZVjwt3qqqqfgqIuh+xFvDhwAIc57LP5g9PN7FtERERERERkcBRwFeH7v3H3QWc5/7JaMA3Crhm7oTEf811u7qOfUbuh+Nc7qwK92r0ZTbgG11SUnz6goknfd/Uvk3a79C7NwdOcf5YBtqnZjBUAAFftts0sBJIAfcvfeX6lQTE7gdetMXKyqpngUMtB3zgOPOKi4tjn869//umdy4iIiIiIl6KxlNbAK2B7YFNMh9eAXwLLAPeTCdjCjikYCngq0X3/uP3AucyMifnGg74bpk7IXGZyX5zde779PrV1c6jOM6gmqPX/L2BgG9U8+bFp86fcFJgDjDY79C7twEuBPYG+tRysMkffyqcgC/3E2kcZxZw89JZNywnAPb8yyWb/rZi5fPgHGo54AMY+9n84fGmdy0iIiIiIrZF46ktgeOAfYFiYOhabj4CN+x7PJ2M/duD9kQCRQFfLbr3H/8AOKf/8RFjAd8o4Iy5ExI/mut2dR37jLwHOAenRqxjPuAbtV7zZqfOmzA0EOHefofdsylwOY7TmtxluAr4agZ82Zpp4GWKuGXpKzeswGd7HHTJpit+/32MAwcDNgO+BcCDn80f/oSBtkVERERExIJoPPUn4BLc2XprC/VqMwKoBO5W0CeFRAFfDT36j9/DgSvIOTnXUMA3ysF5cu6EhLWDNTr2GXkwMAwYaDngG928edGp8yecZC2orK9Ir/uaVVZVXQp0Bvqs4+Ti1T9X2AFf9nNp4P73Z934Aj77c/TCbVasrBoFHGwx4ANYAM6Qz+Y/+K6BtkVERAKlNJJ422b9ivKyfWzWF5H6i8ZTj9msn07GTrJZvy7ReCoCnEnDg72aRgCT0snY2KZ3JRJ8JX43EECns2pprlGVdsO9p7clG+7ZVVZcXHRuEMK9/Q+7tztwPjDA715CLAqwW48r/gpc//6sG+f51ch/03f8r1WPC/5aWVX9NKudrmtcR+CfwGEWxxARkQAojSQ2zvlj88z/q3I+Vgm0wN2rthp3+Vf2/zVlP5f758qK8rJfjTVsTmtLdZdYqisiDRSNp5plftvUEKwuIyzVXatoPNUTOBoz92topuahJc2KL5vxfE/fX8OK2FTbxUvB6tF/fEtgcwulRwJ3Waib60rsh3tjgCtem3zSV5bHWav9D7t3u/0Pu/cJ3L32FO41XRSIATfu1uPyp3brcXmpX418MOvOT4uLi08AZlseapMdOp1m9SRrEREJhPnAT5lfFZlfP+T8+iXzsZ8yv8/9f81fP9Ty5428uysiIqupXvdNwiUaTx2CuXAvayhwemVV9W2HJqY2W+etRUJMAd/qzsTO7L3lcyYc/aaFugB07PN0D+wEk7nGADctmjLsfcvjrNX+h/3zKGA47vepn5+95KEoMBgYs1uPy/v71cRHr975Me7MTJuzCTsCJ+3Q6bTdLI4hIiIiImJFvp0WG42n9gaOxd6MxFNWVlbfYKm2SCAo4MvoMWDC9sDWFkqPBO60UBeAjn2e3hx3WbHN2XtjgAcWTRn2usUx1mr/w/65+/6H/fNZ4HgU7NkWBc5t1f2yF3brcbmNn4l1+mTuPYuAG7Ef8t1vsb6IiOS/5uu+iYiIedF4qsjvHkw5+OgpzYDzsBfuZW0VjafaWh5DxDcK+P5ga++97+ZMONrmZv62l+aOAZ5ZlDrpJYtjrFWbw+87Argd934q3PNGFDjScZznWnW/rM+6bmzDJ3PvmQQ8jN2Qb4vtO51me2m7iIiIiIhR+TSDr6rKORM4xYOhhgKneTCOiC90yAbQY8CEPwE7WSg9ErjDQl0AOvV5ug2wra36Gd8uSp2UtDxGrdrGHtigqqr6XmArFOz5JQoUt+p+2d4fvHrzbV4P/snce57Yucu52cd4ZwtDtAPO26HzaVM+m/fgDxbqN8pW7QbvALQDZxtgQ+A7cF77etGod3xuTUREVpd3e2CJSDjkywy+zGEh+3s4ZHE0nuqUTsbmezimiCcU8LmOxc7svS/nTDj6Ewt1sy7A7uy90c2Kiy6wWL9ObQ6/vzU41wBH+jG+rKYHQKvul0aLiopOfX/Wzcu8HPyTuffcvHOXc7paHKKj4zh3AidZHKNetm43+BgHzgI2BtrU+PTiLdsNqgSGf7NolC+nmomIyBqq1n0TERErSrC/pNULffH2fgzFPUFdAZ/kHS3RdXW0UNPq3nud+ow6Arv7vowBrlkwaegvFseoVZvD7+8J3IDCvSDpAcQcxxnZqvulB3s9eLNmxX8FZlkcYr/tO51q43mgXrbpMGTPrduf8CpwGdCNNcM9Mh9rB5y3ZbtBL2/VbtCe3nUoIiJ10ImMIiJNY2OVzrqUROMpX/YaF7Gp4AO+HgMm7Iudi7Ov50w4+ksLdenUZ9QWwHHYm703Bhi+KDX0P5bq16nN4fefgLsvgpbkBlMUuLJV90tszHit04ev3v0NcAX29uNrB1xnqfZabdNhyG6O4zxD3cFeTfsCUcdxRm/Z9rguVpsTEZF10SEbIuKXSiAfVnVs7sOYQ3Ff14jklYIP+IBhmF+eOxK4x3DNXFdgd2nux4tSQ2darL+Grv0fKWpz+P0PAXEU7gVdD2Dort0v8XT59qdz750DPIm9kG/z7Tud2t9S7To5jjMCiDTir7YB/rltx8Gbmu1IREQaYKXfDYhIYcqHQzai8dSf8C+T2N2ncUWsKeiAr8eACdsCNl4c/zhn/FFW9t7r1GfUrsD2NmpnjC4uLrrCYv01dOjz0Ca/Ll/5JO7JSQr3wqEH0G/X7pdc7eWgn8699yHAysxY3Fl8l+zc9XTPZmNs3X7IRcAmTSgRqayssvlmgoiIrF1BX0uLiH/y5JCNXfBvH0Gbr6lFfFHoFyWDsTN7727DNXNdhr3Ze2XAbQsm/XWFpfpraB97cLOVK6sewf1eSLj0AA7atfslE/c9/O8bejVoUVHRKdibxde5srLqcku1V7N1+yHbAYOo37LctYls2fbYHZrekYiINIJO0RURvxQR/kM2PHsNUYsNfBxbxIpCD/haW6j585zxRy21UJdORzyzL02b7bMuH76WGlpusf5q2vV+aNvKquqHgIRXY4pxPYA+P/+y4rn/O+QKT/6B/mTOvd8AN2Iv5Dti+46neHFfzqfp4R64e/L5ctq1iIjoFF0REREJhoIN+HoMmPh/FsqOBIZbqJt1DvZm740qaVb8N0u119C+90NbVFVV34PCvXzRZ/lvK5/f59C/ebK89dO5/5wEfGCpfDvAi5+FgwzW+ovBWiIiUn/r+92AiBQsh/AfsvGrj2NrBrbknYIN+IATML88t3rO+KPeMlwTgE5HPBMBNrZRm8zS3HkTh3jyLnT7Pg9tVllV/QD5Fe5Nz/z6J3AycCjwf8COwJbAzrgzrWLAWcDDwIzMr3wR+2X578+36fUPT/YDKSoqOgt7s/gO277jKRtZqs3W7YfsBJQYLNlsi7bHtjdYT0RE6keHbIiIL/LhkA3gM/wLKX/2aVwRa0y+wAyNAwdMbAFsZaH0bAs1s87E3uy9z19L/fVNS7VX0+mIh1tUVlYPJz/Cvem4S3PmAk+989LlaztY5VvgU+Dt3A/uddD1fwZOAtoCh1jq00v9fvhp+fPAUbYH+mTOvd/v1OXsW4BLgc6Gy7cDrsddRmvDXphZnpu1L+4hNa8ZrCkiIiIiYk06GauIxlN+zaT73KdxRawp1Bl8PTG/IelIYJThmsCq2Xu29gQrA661VHsNK1ZW3Ye9oNIr04HJwO3vzLws9s7My65/Z+ZljTo1+T8v//2//3n5H5cVFRUdhhsm5cOMvm126XbRpV4M9Oncf47H3qm63bbreIqtPS9tXMh0tFBTRETWrlCvpUXEZ3lyii74t0x3iU/jilhTqBclNvar+nDO+COXW6gLcDp2QrEyYMRrqb9+Z6H2Gg7o+eCJwBZejGXRdOCxd2Ze2uedmZe+aKrov1/6u/Puy/+4u7ioqBdwJ/CSqdo+6Ab02aXbRad5MVgRXIidpbrtcGcH2vAesNh00S3aHpsPs0BFRMJEeziJiF/y4RRdAM8OecwxApjjw7giVhVcwHfggImlmN/LbiTwkOGaAHQ+4pk9sXeE94rXJp84zVLt1UR6PjgA6AsM8GI8C6YD44BTl8y8tMzWIP9+6e+V77585YW4wdJ0W+N4oBswaJduF/axPdAn8+77EHf2rI2Q77DtO51i/Hnyq9ee/BTz+37sC3gSqoqIiIiI7/LhkA2AiXh/P5ank7EfPB5TxLqCC/iAXph/p2P57PFH2lrDfzYwyELdMuB2C3XXEOn5YDtgMOEO96YsmXnJgCUzL/nIiwHfffnKRSXNio8ExngxniXdgEt36XZhK9sDfTrvvvuxs9F5O8dxzrNQF+x8b/fYou2xhfi8LiIiIlJQ8uSQDdLJWAX2ttypzQjgQQ/HE/FMIb4QNL0ZP1iaadX5iGe3ATazURv4/rXJJ/7LUu1V2vZ6eGvgMsId7o1fMvOSu70eeMmMv//8p41aHA08Q3iX7HYDHtzzL5c292Cs24EFFuraOjDkYcwv090XOMJwTRERqVshXkuLiJh2H97N4luRTsbeXvfNRMKnoC5KDhwwaUPML3cdiXvggg1nYG/23k0W6q7BcZzbgSO9GMuCbLj3gF8NLJp8mfNu+qpBwEzCG/IduuL3ysdtD7Js3n0TgR8tlG6+XceTje9t99VrT/4KLDRdl/CG6SIiYaQ9+ETEF3l0yAbpZOwL4Hnsh3wj8GgVm4gfCirgA6KYX5778ezxR/5muCadj3h2fWA303UzPl84+cSPLNVeJdLzoYGY3+/QK+6y3BkX+xbu5Xo3fdWNgCeHoVjScpduFx7rwTg3Yn4WXzvcE45tuAfzs/gihuuJiEjdCu1aWkSCI18O2QAgnYxNxfwe1blGAM+nk7EPLI4h4qtCuyjpYbjeSOy9y9Afe7P3brFQdzWRng+1ARKEdzbRD0tmXHy3303kal5SPJTwHrzRDThjl64X7GpzkGXz7k8DX1sovfV2HU/e23TRr1578h3gW9N1t2g7sL3pmiIiUivN4BMRv+TLIRurNGtW9A/cbWxMGwFMzoSIInmrYAK+AwdMKgK2Mly2evb4Iz80XDPrUEt1ly6cfKLVTUzb936kOXA54Q33pgBn+t1ETUtm/ONH3P0Mw7pUtxvu/hq23YSdWXxnG66ZZfqwjX2BvxquKSIitfNij1kRkTXkyyEbuWY+3+vHZs2KLgLux1x4OQIYn07GkobqiQRWwQR8QFfMT2G2ckhF5yOe3QloYaF0GfBPC3VXU1VVfQPu7L0wmgLc8/aMi23MAmuy99JXvwGMJrwh3yYtu15wks0Bls27fy7wvYXS7bfrOMzGc+YzmF+m29FwPRERqV2V3w2ISGHKpz34cs18vtdP6WTsLOAFmh7yjQAeSCdjE5remUjwFVrAZ9JI3I1AbRiCneW5yxZOHmJ19l6k18NtgN1tjmHZj2/PuGia302szXvpqx8BKv3uo5G6ASe2tLxUF7gZO7P4jO8j+NVrT/0AfG64bPMt2g5sZbimiIisSUt0RUQsSCdjU4B/4G4v1dCgbwRwCXB6Ohl73XRvIkFV4ncDHjIdOq2cPT7+qeGaWXtZqFkG3GWhbk2XEu6luZ6cLmzAfbg/v3/xu5FG6AbcAcRtDbBs3v3pHTufscJC6YHAKAt1xwMxg/X2BXrhLm8QERERkTyTTsacaDzldxtWpZOxz4HLovFUKTAL9zC57CGOuavzsgHgl8Ai3P32fvesUZGAKIiA78ABkzbF/GzFJYbrAdD5iNGtbdQFvl44ecgyS7UBaNvr4Tjh3ovm57dnXPSm303Ux3vpqyfuEb3qHL/7aIKtWnY9v8/Hc+6aZHGM8Zg/WGfb7ToO2+6LBY9+Ybjuc8DpQBuDNQ9CAZ+IiG1hvu4RkRDL1yW6tUknYxXAk5lfROOpDYGrgQ1wT979Lp2MLfetQZGAKIiAD+iE2f33RgJjDdbLNRDzy3PLsHy4QdteD28JHAccaXMcy8b53UADvQoc4ncTjdQNqG7V48LUB7PusLW86RHcvSBN7kfXDjgeuM1gTb567akftm5/wjLMBnx7GKwlIiK1W+l3AyJSsAppu63VpJOxX4Ff/e5DJGgK5UmhremCs8fHbZ2ea2NvshULJw/5j4W6uf5BuMO9KZg/zdS2kYT3sA2AHlVV1TfaKr5s3gM/ATZmZJpcSpvrRdMFt2g7cG/TNUVEZDWawScivkgnYzrkR0RWUygBn+nQ7GPD9QDofMRoWy/G05bqAtC21yN7ATvYHMMD37494yIbe7ZZ8176mg8J/+beXVt2PX9bi/Xvw/xhGxtv13HYToZrAkzG7Gm6+xLe/TBFREREZC0KaYmuiNRP3gd8Bw6Y9CfM38/ZhutlHYed5bnPGK5Z04WEe/YewBy/G2ikf/vdQBN1A66xVXzZvAfeAr43XLYdcLThmnz12lPvY/50ZNOnh4uIyOq0RFdE/FKE2W2oRCTk8j7gA7pgfv+9uQbr5bKxPHfpwskn/GahLgBtez2yL7C5rfoe+pffDTTSQr8bMOD/WnY938ZjP+sFCzVtLdMtN1zPxkxDERH5QyFcS4tIMGmLABFZTSFclOxnuN7K2ePjPxmuSecjRu9ouibu7L1HLNTNlQ+z96YQ3plw7/rdgAHdgL9brP805pfpbr5tx2E2gu2XTRfcInJMS9M1RURklbBvlSEi4aUZxCKymkII+HY3XG+J4XpZPTG/PHflwsknfGS45iqZvfc2tlXfS2/PuOg7v3topE/9bsCQPVp2Pc/KbLNl8x74DVhquGwE6GO4JsA0zO/DZ/IUYRERWZ02uRcREZFAKISAr8RwvUWG62W1t1DT9vLN8wn/7L2w+9HvBgzpBlxgsf4ECzUPNl3wq0UjvwNMH/YSMVxPmqg0ktiwNJLYuDSSWN/vXkREwiTn+XNDv3uRponGU0U6JKLJtERXrIjGU+v53YM0junwK1AOjE/eznDJkcB8wzXp0ve5DYCNDJcty/yyom2vR3YCtrBVX+otn2YOdNy563kbfDLn7uWmCxcV8YLjsACzs9n2NVgr15uY7VMBn4dKI4mtcR8be+T82ok131BrDSwpjSRyP/Yj8F7m1wfAooryMtOzT0VEAq00kmiH+2/X3rjPoTW3mqjt+fNL4H3cGfv/Al6pKC+ztge11C0TDOwGbANsi/tv4PbAJnXcvrYPVwPfAp/jfm+/Aj4GPkonY475rkNLS3SlwaLxVPZatSWwI7ADteRCtfxsVgKfActwV5H9K52M/c9qs9JgeR3wAZ0we8DGytnjBvxusF5WW8wvz12+cPIJXxqumetMNHsvCPLpnbvOwDnALaYLL5v7QPUOnU5/D8PLVbftcNI+Xy587G2TNYHXDdfb1nA9yVEaSWwO/AV3RmdHoAXui8/6qO12nXN+n30BuwT3pO+UAj+R+iuNJI71YJjTjzv3xtufueeKXz0YKy+VRhK7415T9uCPMG9dz6M1P9+a1WfWLymNJH4EZgNPV5SXhfUwtcCLxlMbAG1wA4M2uP8O2jrZdUQ0nqrEDReWAK+mk7FvLI0VBkXACHSSrqxFNJ7aETgM2J8/ttcy8ZgZkQkBv8c9KPCldDL2hYG60gT5HvDtYbje+4brZe1voeYsCzUBaNvr0eaY39tQGmdrvxswLIaFgC9jLDDYYL0I7j+WpgO+V3D34WtjquAWkWNafVv+3Aem6gmURhIDcN/o2Jb6B3oN1Trn/wnglNJI4mfcJecjKsrLmvwmTmkkkf2ZKMadMZH7f1j9AIHsGworc/5OruoaH6sGqCgvG9nUPpuqNJIYkvltzftW2/3O3udioBmrz5Su7WtTDFBRXvakjd5Nynwd6roPJr7/SyvKy+aZ7DmrNJIYupY+qeVzLYDTsffzmXXN1FcXUxpJLMO9rs5+zbK9rO1rSkV52aOW+wuk0khiE9wXmAncmV2mv0/Zep2BWGkksRwYD9xfUV4W1n2XAyMaT20J9MV9Y6sE7wKmmuNkA4aPgVHpZMzWa7VASidjVXXMgAytaDwVZc1/e6njYzU/V/M2uX/OPg9/nk7G3jPVb1BF46mWuK97ds18yMbPaG0/j9W4r2OeMxG+R+OpTYEDMPf9X+Nz6WQs3dQ+gyTfA75WhuvZOmDD9Em/o4FJhmvmSpBns/f2OeT2Dd6ecZHxpaEesHGSq5+a79z1vA6fzLnbxv6RE8H4Mt0uwJ0G6/H1opHvbtXOZA7JvsBeuEs+pQlKI4kIbmCQnWVnOzioKTteR+C40kjiY+DWivKyV5pQc3PgniZ3Vrf7cbe38NtBwJB13qrxRgGBD/iAYbh7ntrS3WLtDYD7LNZvimsa+fcmAQUV8JVGEq2Bv+P+2+TVc2h2nHbAwNJIYhZwQ0V52WcejZ8XovHUZsBRuPuGexnqrU1uDy0zYdeHuOHCf/1pyTvReKqZ3z1Y0A84z2L9PS3W9lU0ntoQOBr39YkfP6O540Wi8dRy4LF0MvZGE2quB7zctLbWagSQtljfc/ke8Jm8f09iZ/+9Zpjff69qweQTvjJcM9fhFmv7oRfwf5hfGumFfJtJ2Rk4CzjBdOHP5g+v3KHT6f/BbMC367pv0iim97PYA8ivt3g9VBpJ/Bm4DffnzetQry6tM79alkYS3wI3VpSXTfO5JxGbqtd9EwmqzL56V+H+u+nn82j2ubNHaSQxp6Sk2ZlfLXy20sd+Ai8zW+9s3L26ghDq1SW3t10zM4kW4AYM+bpvn54XGy6ftjcCVgW9p+GuLgrKz2i2jw0yy+ofTSdjrzWiTt59v2zL24AvGp+8pemar44bYGMTyX0xv//eO4brrdKu16M7A/l4ctl+hDPgO8DvBizYfecu5276ydx7frBQ+0UMz+LZtsNJu3+58DHT+6ItwWyQnm9BsCdKI4n9cV+Q7kFwgr2asn1tURpJXAFc2cQZfSJNYfPgp5pLgiUESiOJVrizhP0O9mpqDbSurKzqUBpJXFtRXjbW74aCJhpP7QacAWxGcEKD+sr2OwzoHI2nyoGn0snYTz72ZFw6GXPybYmuB/ImFP3LUVOKqqudMwhWsFdTtq+SaDw1DHgonYyVN+Dv5833yyt5G/Dhzsgy+UBfYbBWLtP7BI4GxhmumetY8mx5bsYBwON+N9EI+/jdgAWdcaeX21i2NBWzy3QjuAcsmA74TG8GroCvgUojictx33wJ0gvStcn2eX9pJLG4WbPiYV+/Nro+J0gqNJGw0EV+yJRGEhfjvqkW5OfRNsB1pZHEoA3Xb3H8srkjC/7k3cyMvcsJZ7BXm6GZX5FoPPWf4uKi2196oVe+zuiTdcuLk4ej8dQ+wLm4IXYY5AZ9PwM31vMEXs3ga6B8vrA3vXTO1v5VpgM+FkwabG0GHwY3/g+Y0AUge0Sv2hJ3T6J8FLNR9LP5w78FfjRctuW6b9Jgbxmut73henmrNJLoXBpJzCdc4V6u1sCgqqrqeaWRRH3ejMmLC10JDJsX4vl4kW9zxqNvSiOJXqWRxBsEP9zLag0c+etvK9KZPQILVjSeOgz3sLMLyI9wL9dQ4NbqaufhaDzV1u9mTIjGU0V+9xBCoc4/ovHUhtF46mbgfMIT7uUaCpwD3BiNp/5Sj9vrOrWBQv0AX4edDNezddqO6SDyZ8P1VmnX69FW5OcFNgD7HHJ7B797aKBjcWeP5aNtd+5y7maWaps+Ydp4wFdUxGLcE6hMKS6NHLOewXp5qTSSuAZ4BHeGZ9hf5LUBrimNJG5bx+3ycYNu8Y/NC/G8DMPyyfadBxWXRhJP4O5Z2obwPY92BJ4rjSSO8bsRr0Xjqf2i8dRDwDHkX7BX0zDgjGg8dVc0ntrG72aaaD3y//slGZlg+p/ApYT/+z4UGBSNp+456Mgpm/rdTD5RwFd/Hxqul2U6MFtsuF6uI8nP5bngHrRxst9NNFAvvxuwqDMQt1R7LO4yXVOM70n51WsjqzG7LUBr4M8G6+WVrTscu2lpJDED9/ktbC9I16Y10Ks0kpi7Rdtj6vr+KzQRk/L2TUBL8iZgL40k2v+2YuUCwjNrry6tgX+URhJ/9bsRr0Tjqd64S/1OIfyhQX0NxT2p9cZoPNXF516aogr3FFDJc9F4qhfunpj59DM6FDjHcZzbM0uOxYB8DvhMn6D7rsF6AHTp+9z2mP8evGm4Xq6IxdpBsMM+h9xuY7mlcXtEr+4EtPC7D8uszE78bP7wJYZL2tqf0/S+fqFbhu6F0kiifWVlVRo4mHC/KK1La6Cz4zhj6liyaztgyOfrDFmT9slrmLwI2EsjiTNx9zFu53cvhrQGLsz3kC8aT/0pGk/dg/uGaj6FBg0xFDgpGk/dcEhiSuiWu6aTMZ0A3XChemPlkMSUkmg8dStwFPn7czoMOD8aTx3idyP5IC8vvKPxycaneb46bsBy0zUxf4LuaGCRwXqrtIs9Vkr+vzPfC/i7303U09/J3+W5Wa0s1ja5x923Bmvl+thwPeP7fYZdaSQxGPdFaRufW/HCvrhLds/0eNygBD55EaSEgL7ODROqF5pZpZHEXjm/vwE4nfx7gyQb8uXltVY0ntofuBt3L6x8DQ3qayhwRWWl82A0ntrZ72YaQnvw5be/HDVlm8pK537gYvL/53QocGw0nupb4+N5mVfZlK9fsF0Jxwm6pmeLrVwwabCt078OI3+X5+baYZ9Dbt/f7ybWZo/o1X3I38M1VrNzl3PbWCo9CnPLdE0u981let9P0/t9hlppJHEy7h4m+faidG1aA6dnTgjm2LNv6ARs4W9LngllkCISQK2BF7Zoe0ybzNYG/cjf59HWwN1bthu4ld+NmBSNpw5CwV5tTgGuisZTB/jdiMhBR07ZrrrauR73cVkohgL9ovHUUQB3DV/UAk1QaLB8DfhM/0P8meF6WTsYrmd6xk+u9hZrB0kv4No2h98RyBeDe0Sv3hb31KS8fEe5hs5AHxuFP5v/YNpQqXJguqFaNb1vuN62huuFVmkkcSrufkP5+qJ0bVoDg0ojiSemzXmzF3Cl5fHy9TpDvBeU2aACrR3HeYP83dog177V1dVP+N2EKdF46lDgeBTu1WUocFZY9uVLJ2OO3z2EUOBnmh905JRtHMe5lnCekttUQ4Fe0XjqjvEvftUZeNnvhsImXy+8Nzdc70vD9bK2N1zP1km/ADtarB00fSurqh/wu4k63EdhhHtZNvfzeYymz75b8uXCx/5nopnaamP20BwFfKwK984m/1+Urk1r3I3wbYd7oFBGzMnXa1YJvpaZLR1CLXOYxkAU7q1Ldl++wF9vR+OpQE5ICLhAf80y4d71FGa4lzUUuACFe42SrxdLppcc2XoBb3qZpZWAr13ssa0I+JOhBbu0PuS2E/xuItce0WvOx3x4HXRb2yr82fwHHwFWNqFEOXCVoXbW8PWikd8ZLrmJ4XqhUxpJHI7CvUIV+HfsZZ3yMSzW4zIcWgMXb9lu4Hp+N9JYmXCvkA/TaKihwKCgh3zpZEzPIQ0X2K/ZIYkpJQU8c08MydeAz3QI8pXhenTp+5zpAytGA/82XDOrI4Wx/16uw4BBrQ+5baDfjQDsGb3mLNzlqoG+0LBh5y7n7rXuWzXa5TRuFt8i4LovFz72oeF+atLpaIZs0faYvYDbULhXqArtTSoRMWvf6urqf/jdRGNkTqZUuNdw2ZCvg9+N1CUaT5X43YOYU1np3EJh7bknFuRrwGd6Bt/XhuuBu+TV5Am6LJg0+EeT9XLsZ6lu0B0G/LX1wbf6GvJlwr0BFGC4h7sPXzdbxT+b/+Bs4DLqH/ItAmYCZ3y54NFxtvrKYXR7gNJIotBmgAKwQ5fj13cc5wnck2TFW0G5zgjsO/Z5RkFqw+jrFS79tmh7TKhmw0fjqc7AsSjca6yhwKnReGpPvxupg/5tazjTk2yMiMZT/YDN/O5Dwi8oF96mbWyw1pPAJwbrZZl+oW3rpF8o7NM3syHfED8G3zN6zXkUbriXZXXG1efzH0wXFxcfDFyLG/QtquVmi4DxwFVfLHj0kC8WPPqazZ5y2zNYqzXmT+4OheW//T4BdyayeC8oyyoVpHhDLzYln+3rOM6pfjdRX9F4ah/cpX4K95pmKHBJNJ7azu9GatIhG40SlOuSVaLx1IFAX/SzKgbk67Reo8Hlq+MG/G6yXkZYTvqFwtv3rabDAFoffGu3kmbFp7w5/SLr/5ju9ZfrNnEcZwTu176Qwz2AvW0PsGzu8F9w99O7avuOp+yBe2r0BrgXAUuBt75Y8IjpPfHq41PD9bbH7MEdgVcaSZyJ+QONpP7y9Y1EERMUiIZPAne7h0CLxlObAecT3MBg9Do+H4gtcnIMxd02JVABrw7ZaJRAXZdkguMTCO7PqoRMvgZ8YbCD4XomZ/qs0i72WKiWIlh0GEBlVfV2rQ++5YYlMy+dZ2ugPQ+6NoZ7UXaIrTFCxtPH4OcLHn4PuydSN4SNgK9glEYSewGno333RLxi88VmoF6UGaIX5+GzQWkk0amivGy+342sw1UEIzAYjRtkfwgsAd7HXRn1dToZq3UmVTSeagFcgbud0Z9x/w3PXr/4GfyVROOpPulkbJKPPawmnYxVReMpv9sIm6YcsGfD3wjGz6rkibwL+KLx1MaE4yJwM8P1jO7VlaM1hXfAxtr0Bv4LWAv4cJ/kFe7l2LnLOVt+Mvfeb/zuwwem9/+0dipxQD1EOMK9GXV8PB+eBwK3FEZCKx8fS5rB54Y+4H5/fwCW417Hbw60yHwuSM/jrYG/AoEN+KLx1KF4/OZoDaOBX4E0MCWdjDXo+i2djK3ADQQ/BF7NfjwaT+0EvA60wQ3HvQ77hmb6+CSdjP3L47FrpRl8jRKYr1nmAJwN/O5jHcat4/P9PehBGiDvAj7cd3hMpuC/GqyVy/SyVysz+CiwGT/1NNdy/ddQqJqrM+47uIUY8H1ruF7BzMgtjSTOx/yBS001A/cF7CLcU88/Az4GvqkoL1tt6X9pJNEM9/l3J9x9UPfDfWHZgvwI/iQ/2Q6slqz7JqvxKhhqaF9ZgXmh6bEluOHNRGBWRXnZf+q6YWkksT7QFfdaoA/uPtt+B35BPlX1z7jBlx8zgkbj/tv2SDoZ+8J08XQy9ilwO0A0ntoP+An4E94GfUOB6oOOnHL+y2N6/ezhuHUpRrO/GioQb6xE46mdCd4BOONwZzi+AZTjPk+/n07Gav2aReOpYqAV7nXq3kA73J9JUPDnm3wM+Ey/gLW175bJg0DAfBCQtZOlumE1HXjZ8hi2A8QwaoXdWZNB9ZXhegUR8JVGEtsCJ+H/i0BwQ73PgLHA1IrysnodiFRRXlaFu0T7U9znhFEApZFEKRDH3TZgcxT2SbBYC6wqysuGA8Pre/tMMLQI+88DS4ABFeVl/7U8TtgtwT0QbixwX0V52ff1+UsV5WW/4Z5ePxO4vjSS6IS7pG1X/HuOb14aSexeUV621Kfx1+YivA8MRuN+f+9MJ2O2JkasJjOD7pRoPNUadzLGhngX9A1zHOc74BKPxlubQIRVIROU2eBB2SNzHG5YngKeryvMq01mmf3SzK8Xsx/P/Fx+Auyc+VB/Q71KPeRjwGd6xsYvhutlmQ74bL2LtK2lumFVtWTmpbZnks0HXkKHa+QqyNNfgQrcQzHaGKpn+nknqG7G/3BvBm4w90BFedn/TBWtKC+rAB4FHi2NJFrhXiDuhYI+CYbAvNisKC/7rTSSaIf9kO9YhXvrtAR4vKK87I6mFsrsfXdEaSRxBHAt5v59bIjWwOG4L2oDIxpP/QVvX9uNBv4HXN/QZbimpJOxJcBJmfsO3oV8W0TjqT3Tydi7Ho0n5jT3u4FoPLUn/r/pPg74CLg5nYwZu06FVT+X5wJE46neOZ/qb3IcqV0+BnybGq5n650ok+vtR2N+r64s06f9ht2/bQ/w7stXrtzzoGt/tD1OyOzodwN++HrR0z9s1e54kyX9vpiwrjSS+DPuEgG/zAD+BVxVUV5mdflORXnZB8DZmRmL1wG7oKBP/BWoJaeZkM/2MLb2QM4Xs4GzKsrL3jRZtKK8bOLWHY6dX1lZNR53+a7X2vswZp2i8dSmwCC8mxE0Grg/nYzN9mi8tUonYy9F46nFeLdsdyjujNQzLI+zLr6HVSEUhDeizsW/2XvjcHODv6WTMVv5wSrpZGwyMDkaT/XLfKi/7TELXRgOo2go0zP46rWcym8LJh1v60Qg04Fp2Hm1qfJCj8YJi7wPpjxSCDP4bsG/2XvjgYsqyssutB3u5aooL/uyorzsZODvuHtayZqCcEFfCPLxunJdAhVqBsgSYPyfNtrgINPhXtZXC5/9euON1v8L7mEOXvN7lnhNF+BdYPAEcEFQwr2sdDJWkU7GTgFewA0gbWsRjafaejDO2gRluanUU+Yx02KdN7RjHHBbOhk7xYtwL1c6GRuP+xz1COs+uEOaIB8vxEwfXhGKgE88MR3vLiJf82icsNjS7wbyRF4H9qWRRGtgDx+GngE8vOH6LY6y9UK2PirKyxa0WK/5QNwlvHWdzOu1oFxnKITxhq03GyVclgBTKsrL+n/86pOVNgf65NWnfivddOOeeB/ybVAaSQTi+S0aT+2CNysdRgMPtliv+CQbh2iYkk7GxgAjsB/yDQVOszzGuujNq/A5Be9n740DnikqKhqaTsZ82+s9nYx9lwnhn0AhnzWB+IfJsM0M11PAJ1lVS2Ze4tW7HXNw9+ETl2bwmWFya4AguhjvZ1XMAEZUlJedumzuSKsvZOvji/mjfs3M5nuSYIR8ml0g+U5L5FaXDfcu9mrApS+PWNGsWfGxuHvWeqU1/uz/V5szsB8YjAZmpJOx06eN7hn45/V0MvYi8AD2Q77iaDzVxfIYax0fN8yU+vPt8RuNp/bG+y3SxgET08nYoJfH9LJ1eGiDZGbzXY1CPivyMeAzPUPlN8P1QqNdbIRf04eDyvr+e1nvvnzlckD78AmA76FRGJRGEpvg/d57M4CHK8rLnvV43HWqKC97GniIYIR8IvlMM2j+sASY5mW4l/X1a6O/BC7L9OCVnTwcq1bReGprzG9PVJtf08nYYx6MY0w6GXsV+yHfUGCIxfprlU7GdI3YcH6+KTMMb2fvjQPGp5OxwIXA6WTsTdyD4sb53EreyceAz/TyEONPnF36lhUZLmnr4nJj4EhLtcPIq/33sl73eDwJJlsH/eSbU/F29t4MYHhFednzHo7ZIBXlZS/gvrhRyCdeKcSl0FqW/IevK8rLLvRr8Irysml4e7Lt9h6OVRcvlvuNKi4uusDyGFZkQr5HsBvylWRmZnkuGk/l44GZeSkaT22B+ZWGazMON9x7wsMxGySdjH1UVFR0Ngr5jMrHgM/0i2Eb4dkGuCddmWLr3RvN4PvDdOBlj8f0OlCUYFrudwMhYf2ozBzZcC/p4ZiNUlFeNhaFfOKdfLyuXBct0XW9VVRUZPTY90a6Eu9m8Xmx712dovFUC2BXy8OMBq596YVeP1gex5p0MvYSdg/e8HMvviL8O401rPyadT0E775X4wh4uJf18pheyxTymZWPF2Km98yzsU7f9Lsttp6oCvGd+LpULZl5yTcej6l9+ETqoTSSaId3+wvOAJ4NQ7iXlQn5nsafkC8frzOkboHfm8uCQrzPNS0Brvv29ec+87uRivKyfwH/8Wg4vw8Asx0YjAYeSydj71kcwxOZgze+tzjExtF4ajuL9etSifbgayi/Xt96ucrk+zCEe1kvj+m1DPg7CvmMyMcLb9OzXWx8jcIQQoL3m4AGmWf772Vl9uH72etxg2qnLues73cPElgJvLtw+qCivCx0F9MV5WVP4t2LXilc2o+uMC0L2HYFw/FmFt9GHoyxNm0t1/8pnYzl0+zvf2B3Ft+xlmrXKZ2MOV6PKQ0Xjad29nC40eutV3ySh+MZkU7GlgD3oJCvyfIx4DN9KIaNlN90TVvLQzSD7w8LfRpX+/C5OqMXjlK3gzwaZ0pJSbNQ7kMEsH6L5ucBEz0eVrObCkshXjfk47V0QywBfNt3rzYV5WUzPRpqQ4/GWUPmcA2bb8SPBq6zWN9z6WTsG9zZbrZCPs/34YvGU6b3dS8Efuyb2h9vlueOAy6fHoKTrmuTTsbSwHgU8jVJPl6UmJ4dZyNUMP11t7VXnjb3d00H0j6NrX34XPMo3IDP6PNFaSSRV8/7pZHE7nizPHcGcPVXC5/9xYOxrPh83qgq4Gq0H5+ISaF8IWXQWxXlZV6eXFtfiz0Yw8+9qo/EXmAwGhidTsY+tVTfN+lk7EXsBTzF0XhqG0u167Ie2oMvDLxYZTIOeCqdjH3kwVjWZJYWF/q/q02SVy/0MkwvabTxbvQKYJSFuqbpZDhX1ZKZl/zPp7G1D1/Gp3PvLdQne6P3u6K8LN++jgPw5sLpPxXlZX7N5DWmorysHPiX331I3irEN2IK8T5nLQFu8ruJOnjxfO3bDD6gjcXaVelkbLzF+n67Dzuz+IYCcQt11ybfrum84GkwH42ntsSbba9+SydjYz0YxwvXo1l8jZaPAd/3husZnxkyd0IiLMGZ/tFwvevbwOmrfkH78BU67YW5dod6MMYM4FoPxvHKtXg3iy8frzNEchXyKbpfZg61CKJyD8bw5d9ny4HBaOBRS7UDIZ2MLcReMN/GUt26FPIbDI3l9evwv2B/luU44GbLY3gmnYy9gd1DcfJaPl54mz7G3c/p9377GRjjdxMBMNfn8Rf7PL74y88ZAmGwvQdjzK0oL/vag3E8UVFe9gPg1R5VeqOosBRi2FXIj/Fn/G5gLcrx5qANPxyIvcCgKrMPVr6zdW1fEo2nNrNUuzbF6BTdhvJ6r9i9PBjj+3Qy9qYH43jpOjSLr1HyMeAzPdupYAO+RamhpvczDCM/99/L0j58hb1c3Iv95UIps/+ebTOAf3owjteGU1h78WmWgzcKMezKx2vp+lgCJP1uoi4V5WW/kr/XDvtZrF0o28JMslR3KNDRUu01pJOxSq/GkkbbyXL9ccDtlsfwXDoZ+wD4ye8+wigfL0q+N1wvFLNnOvZ5emO/e8hTVUtmXuL3zJ3ZFM4FV12+9bsBCaSu2N9/74OK8rJvLI/hucwsvqAurbOhEE93FW/ka4i0Ll9WlJd973cT6+D39ZstNmeuv2KxdmA0Ky76wmJ5z07TjcZT2sal4TzLP6Lx1HoejFedTsbydbbyPWgWX4PlY8D3neF6tgI+k+9yDwS2NVgvV6FeuGb5tv/eqgbSV/2E+dOhw8b0z7XkhzaW68/AnemWr56gsGbxiX2aKVk4pvndQD187ncDpkXjqT9h9/Xb0mg8tVs0nmoWjadWjVPj96t9rpbP1/xcs5q3rfmxdVlbL3Xdrq460XiqeVW183tDxm+gPSzWrsnxcKx84eVr2wOwv/9e3k4CSSdjr/vdQxjlXepfBN877uawwwyVtLU8zvRS4s0M18v60VLdsAjK8tjXgV5+N+GjgpzBt1W74/PxTRiTIpbrV1eUly22PIZvKsrL3iqNJGwvqdRjWCT/LCEcezR/6XcDFnTAfmCwNPP/0dF4atUHc3+/rj+v67Z1fWxt6qpfn7FqGNiggRvOs+2d0slYVUO/juLpVhK2w95xwAuWx/Db+343EDZ5F/C9nIxVReOTTZbcxGSxHKYDi00N18v61FLdMJiOdxvRr8trfjfgsw/9bsAnm2J2ltpyg7WCYAvL9QthCeti4DCL9QtxTzYpLIV4sAgV5WUf+N1DPeTdDD5gNw/Hsh2E5a1oPLV9Ohmz/vjTEt1G8fKNR1sr7LJWppOx/1kew28vAhf63USY6J31dbO1t53pJYdbGa6XlY8XR/VVtWTGxUHZeytNHk/BrodCDZpN/1ybnjnsm9JIYn0PhpntwRh+s31KeFCuM7R0VGwpxK1MwvJvST7O4LMdGEjTDcX+FiJZRdif0ZlvvNyT1/bPa76dnFubGWgfvgYJyoW3aSYvtmw9CXxvuJ6tE3oKNVgB+LffDWS9m77qRwp7H76P/W7AJ6YvDPJpqfN22D1gYwbBWaJv03y0D59IUxTiAS5L132TQPjK7wYsUMAXDjt6NI7evAo2WysBs96wXN936WSsCq0GaZB8DfjCsG+c6Rl8tv4hKeQZfAv9bqCGQlguWJt5hOfFhGmmZ/D9YLien1raHqCivCzflz1k76PNC6egXJRV+t1AgSjEsKsQheXaMN+2pQAP93eTJtna7wakTl6GojazlnG4r5EKge+HXoaJAr566N5/rI2lYF8brmdrL6r/EI6NlE2bDszyu4kabC+lC6qqT+bem48X6fVh+p36MLz5UV+2Zi1nfWG5fpDkfZApYlEhzqAxfQ1rS1iWEtdLQ0+eFV95NdOyGBjh0VjSANF4ynoYn07GTE8YCqrArKoLg3wN+EzOUhmCuxTMNNNLX638o78odVIVhXnxWrVkxsWBeoFf5AaOhbgP3zK/G/CR6XeAw/KirD5sXzx/Zrl+kATquc6S3/xuoEAU4te5EA/ZCMvS13x6UwtgG7TfWlhs4MUg6WRMs9ODa1vs/rwGZYWEFwrpmrzJ8jXg+95wPRvTrP8HjDJZsGOfkbbW+RdiwBK40+HeTV/1PYW5zGyJ3w34yPRpeWF5UVYfti+eCyH0yiqEC6dCfO70QyG94MgqxFlV3/vdQD3lW+C8ud8NiEi92Z7Bl0/X9OtSSPe1yfI14DM9XdX4TJG5E44xfdExEHsbzhfitNigLod92+8GfPCW3w34qJXhemHZN6k+NrRcv5ACvkK4r4V40qkfCvkwqEISlqWvP5BfbxIW4mzR0IrGU7avU4jGU0W2x8hDXr0po4DPnEKcbNRoCvjqZxvD9bJMXwjvbbheVqEFLFOAtN9N1CGowaMt84A5fjfhI9Oz1PLpVGzbM/h+tVw/SGze16BcZxTiVhPijXybJVYfodj3qaK87He/ezDMk2WfYsRQ7J+gSjoZc2yPkYe8uh6wHfD9Yrl+kPyIe6iI1ENQLrxNM73nxg6G62WZTqNNL+fLWkiBHbTx9oyLgzrTqdD24av6ZO493/jdhB+2ajfY9Am6S8ivgM/G4Ue5CulgF5uz24KyZNN2H4W4TFNctp+LgqiQnh+DRDP4wsX6IQuawdcoXv17bfvfhoIJ+NLJWFCuJUNBAV/92NrM/T3D9VoargfAotRJDoU1m+Vjvxuoy3vpq78mOC+YvfCO3w34aE+gjcmCFeVl35us57ONLNcvpD3bCmEGku2lo2F54W37hU0hXStkFeLy70J4zggi64GRGOXF96sEHbwSVLZn3ObbDGUxJF8DPpOn6IK9J2jTQVKzjn1G2nonp5CW6c73u4F1KKQ9ERf43YCP9jBcL9+CYdtBRb59vdbG5rVAvl5n1BSW+2m7z7DszWZSIS7/1gw+fyjgCxd9v8QmrRyQWoXlgrShfgJGmCzYvf9YG7NF3sLsSboDgf0N1ss1nsJYphvk/feygh5AmjIPmO53Ez7a1XC9oC47byzbQYL1zbEDxOZsyKAEpbZn8IXlhZztmYaFGPyEZfamSTpMxR+FOFs0zLy4jqjG8GteMcb2z+t6lutLSOVlwJdO9ja94egQ4M+GazJ3wjE/YP7Fj5WAb1HqJNPLiQPr7RkXBXaJbsarFMY+fCs+mXtPIZ+aZDrge9dwPb/ZXgoYlsDGhEIIM23PsgrLO+k2w6glFNbS9qxCDF0KcSl2EBTiz1eYbWx7gHQyVogziJvKq/zD9htetreqCYxoPFWIb6Q1Wl4GfJbYOsDC9A//fobr5SqE47g/87uBdXkvfXU+HZSwNoV2YnBNuxuu977hen6zPYPE+ul3AWL9RUgAmN6bt6awBMJWr/sqysu0N1thCMrM3EJTiEvgw8x6EK5DNhrFq+cv2z+vm1muHyRbAv39biIs8jngM/1DZeUAC8zPqtnecL1csyzWDorX/G6gnpb63YBl84Cxfjfhl63bDy7GfGCQbzP4bF842To9PYgK4b7afrzk8/WUrF2hzSxYQmHuOxgEhThbNMy8mNmtf3sazqufI9vjbGe5fpDs7HcDYZLPTwpfG67XynC9rCWmC3bsM3JL0zUzJpPf+/BNAab53UQ95fs+fFWfzL1nkd9N+MVxiGD2BN0l5N9BOQr4zNnG7wY88K3l+oU041NWV3Cz2SrKywruPgdEIe5xGWbWZzRriW6j5MsS3T9Zrh8khRRmNlmJ3w1YZHo5qa0lTItwD9oYZKjeQGA07qEYRi2aMuyndr0etf0iyVch2H8vK427D99ffO7DloIN9zKML7WvKH8u3w7ZMP0mTk07Wa4fJIUQZtoOhAttFldtNLtIgiifwsgvcA9UGGqp/nDcN/JzQ6NmmT83y/l4bR+r+fGV/BGk1Lxd9mNZVbjfp+I6bpt7+5o91KxVs2bzGr3UVF3jc9m/U7WW29Q1Xs1+rR9GE42n8vm1vC1ePSd8hd2f10KiGXwNkM9PCv8zXbB7/7F/enXcgJ9M1pw74Zhvu/R9zmRJgM5YCPgyXgZOsVTbb6HZY/C99NUf7hG9yu82bJkHPOl3Ez4zfVhOPr7r/6Hl+n8qjSSaVZSX5fW746WRRBGF8S6w9q6yz/Y+h0GVz6thJEDSydj30XjKVvnhLdYrvmfa6J75tp1HvqtGAVJDefKcnU7GVlj8eQUgGk/tnE7GPrE6SDDs43cDYZLPFyWmw5ohQAfDNbNMh5G29gsEGEf+LtMN27LXsMw2bKgVn8y9Z7HfTfisjeF6xrcCCICl2L1fh2DpVPKAaY97X/Pdl7YHKI0k1rc9RlOURhK2T0su1IAvn2aISeFqrnAvlBzcWWISTDZPvu4PHGixfpBs5XcDYZLPAd/3Fmrua6EmQLnpgh17P2VledmiKcN+Az6wUTsAwnLARlbYAsn6mul3AwFgej8v488xfqsoL7Me2GDvTZ0gae13Ax5Zjt1AuDXBP9FuM+x+v7+zWDvI8vlaWoLH1mzk4mg8tYGl2mJJOhlz/O5B1uoby/XbWa7vu2g8pXCvgfL5ouR9zL+jsbfhelkv4+7DZ8pAoJfBejU9Qv7N4ptC+EKQlzK/8sk83MdXwdqq3eADLJQN22O7vmzPnOlhuX4QHOR3A16oKC/zYolu0C9CN7dcv1ADPu09KF6ytZ/uUMyvHhDLovFUkd89yFrZ3v+6EPam64k7W1HqKW8DvnSy9++Y33fKyjtbcyccY+OHv4uFmgC8PmXYf8m/C9of355xUajeBXsvfc1Sv3uw4PNP5txtfP/MkDkIsxfZb5G/h5bYnk28VWkkkbeno5ZGEi3QyWQm2dwewwTbAV+hPnfXtuG+iC02A4POFmuLHUVoD76G8nJbBesH3EXjKVsTkIIiXw+UtCZvA76Mf5su2K3/2G1N18wwfWG8QYfeT21muGauB8mvWXxv+t1AI+XTqcbzgNv8biIAOhqut+Lb8ud+M1wzKGwHl4cAAyyP4acYhbH/Xpbti/pWlus31Y6W639muX5Q6QRl8ZLx1zY59rRYW+zQGwwN5+Vz9hzs7pHYHzjJYn1fReOp5gR/+5PAyfeAz/SytMHAwYZrZs02XC8BHGG45iqvTzn5FVu1ffK63w000ht+N2DQz5/MuXuB300EwO6G6/3LcL0g8WLfzH4ejOGXo/1uwGO2T0rfzXL9prIdQHqxL2YQ5esbKBJMi7EXGJRE46ntLdUWKTjpZMz2dQfAbtF4Kl+D3pPQ8twGy/eA73XM/yNoazPLmZjdhw8garheTXMt1/fKFGCh3000UtgOBqnLbOAurwfdodNpG23f6TTby9bqbet2g/fG/PNyvi7PBViA/ROC/1QaSdg6YMk3pZFEK4K/Z5xpyyzXNx3Om2Z7CbGW6IpYlk7GKoEVlsoPBQZZqi125PtreRuqPB7P9h7A/YGTLY/hFy3PbYQSvxuw6ZVk798PHDDJ9PHUWxiuB8C8iQN/7HzEaNP/YG/cofdTWy2cfMLXhutmPYS719+Rlup7pfrtGRd973cTjfQq7kEbYX8CrPx4zt1TbA+yQ6fTtwVOAacLf0z5brZ9p1PB/Qf4RRxn5OcLHv7Udi916IX5/fdmGawXKBXlZd+XRhKm91qt6RDgYuAEy+N47VwKa3ku2J9hZuX0eoP2sFh7CfCxxfpBphfY4rX3LNbey2JtMc/L/eSkcf7jwRiH4m6flTei8VRHtAVGoxTCRYn5ffj6JW2dWGN6SXEi88uK16ec/AvuUoGws71RvzXvpa9ZAZgOsb02G/inzQFaHXhOyQ6dTn8EGAdcAxyOu9ddR9xZue1wZ7zeACS373jKfS27nr6RzZ7qYPxE02/Ln7M9w81vXpwQvF1pJNHWg3E8URpJ7AH8n0fDBek6w3YAVVwaSfzZ8hiNUhpJFGN5xmZFeVmhnqKrF9jitbdsFo/GU4Vwgny+qMbuHm/5yOtZ11Z/XjOKo/FUvm0pcyFantsoQbrwtmWx4XqDgd6Ga2ZNwPwyXdsnYt1D+A/bCOv+e1lv+91AE1V+POeupK3iO3c9a9cVv1fOBIZRvwMs2gFnrqysmrp9p1NtznhZzdbtTyjB/Cb4oQ2vG+AZ7C/TPQT4m+UxvHQF3s3eC1L4YfvnoTXuLNwg6ojbny22lyCJyB9ewV6oMxT3tY6EQDoZ83q5qTSc7YM2wA3CTozGU3+yPI4novHUoWj2XqMVQsA3D/M/VG0M1wNg3sSBn2J+NlbzDr2fshZSvD7l5J/wZgaNTWE/qCKs+weCO3vvdpsDVFdXPwE05t3obo7jPLZL99O9+gfmYMw/t6QN1wucivIyrw78+VNpJDHEo7GsKY0kDgd28LsPn/wb+2FwULdLsH0a9IeW6weZXmCLpzL78Nnafgfc2UA9LdYXQ/L4cIW8kU7GHOBzD4bqD9zhwThWReOpzYEz0Oy9Rsv7gO+VsX1sLGHcoFu/5HqGa2bZWKY7zHDN1RQVFd1FuGfxhf3kv2/9bqAJln88567Jtorv2PmMk4AWTSjRbcXvlVYDyBwxw/XeAl40XDOoFnswxiHA8aWRxN4ejGXFFm2P2RK4gMLbew+AivKyTzwYZvfSSGJbD8ZpKNsv1pdarh9keoEtfnjZYu2hwNE6UTcUinG/X1J/fuQfXu2HvVU0ngr7Nd5tKNxrkrwP+DLeNVxvMNDBcM2sFzC/TLdlh95PbmK45iqLUsOWA8MJb8i3od8NNFFgToFtoNnAVbaK79j5jD/hnipVn2W5a9Nlu44ne/E17mK64Levj873/feyRmF/Zha4wdgt23cetLEHYxnnOM7dwGF+9+Ez20tJW+OGqIFRGkkci/3rvcWW6weZZvCJH6Zjd9nfUODvFuuLGXr+abiVPoz5Mt7sldgfODMaT+3iwVjGReOpAVg60LSQFErAt8hCzaiFmsybOPBzzM84TGB5P43Xp5wyE/jV5hgWtfK7gSYK64yijz+ec9c8i/UvoenhHrh78lk9KXrr9if8GfOnmhfC/nsAVJSXWT+BOccRv61Y+bCH4xlRGkmcDWzjdx8B8KYHY/Tcou0xQXrj6ALs7r+3BHjNYv2gW9/vBqTwZJb92V6B0iIaT/WxPIZI3vNgWX2u/sAdBx89ZVOPxjMiGk91A05As/earFACvvmYT81tbr6/wEJN24dtgDulNoyz+EyEQH7az+8GGmE28A9bxXfqctb6uHvamRI1WKs2x6D995oq7eFYW5VGEud6OF6TZPYO7EuBLs2twYtDlfZ1HOcxD8ZZp9JI4kJgA9vjeLT8Oag0g0b88gT2Z/ENiMZTQd1btEHydL86HUTQcH49Dh7BuxOP41VVzgO9jpsaisd8NJ46AJ2aa0xBBHyvjO3zO+ZnxdGtX3I30zUzRmN+mW7zDr2ftBryvT7llLcI56yhrn430Fh7RK/ajvAt0Z0NPPHxnLusbcruOM5FmA21WxqsVZvDDdd7C7B2MnFA3Yk3y3TBDcr6hCHky4R7x6NwL+tlvHmc7FsaSfj6org0ktgP+Ct2Z++BN5uHB1mQToqWApJOxv4LLLc8zFBgUDSe8mKigDXReKoD8HA0nvp7NJ7a2u9+DPod70KjfOHLmzLpZOx9YIWHQx63/Lfqpw4fGOyQLxPuXYnCPWMKIuDLWGy43mDcWTfGzZt47HfA94bLJoDTDddcQ3Fx0ZWEbxZf8T6H3N7J7yYa6VyCe2pjXX75eM6d1ma37Nz17BLMH1hhbQlWZnmu6T3dfv329dEFNaOmorzsA7zd6D8b8l3s4ZgNonBvTRXlZf/Fm0CmNXDHVu0H7urBWGvYrtOgzYHHsB/uQeHNFq6pkK6lJXgexH7AMxQYFtaQL3PowKm49+M64KZoPHVdNJ7a0d/Omi6zVFsaxs/Ay8tZfADHrfi9+unDjpkayJmeCvfsKKSLkhThWqb7GOZn8bXo0PvJAwzXXM2iySf/BtwFjLU5jmG9gEv9bqKh9ohetRXQ3u8+Gmg2cLnNAaqrq6/C/JJ0m/tLHov55blendYVNF7O4gM3ODusNJJ4YrtOg5pyWrNxpZHEqSjcq4vp0+rr0qaqqnrUTl0H/8mj8QBoFT2x+YrfV47D3T/UtiXAVA/GCTLN4BPfpJOxt7GwSqkW2ZDvIA/GMuLQxNSiaDx1De51Vu5Js9kDRK6JxlN3ROMpWyuyJJh821YhnYy9gff/Zgz8fWX1U9F4KlD7MEfjqR4o3LOiYAK+V8b2+dhC2eJu/cZY+Udh3sRj37BQNgGcZaHuasqnnjoHsPH1tqnFPofcfrzfTTTQ/YRr9t5sYNTHc+608dgGYMfOZ/4JONRCaZtL0Ez3+xbwvOGaoVBRXjYL+NbjYQ8Bhqz4feXzpZHEnz0eew1bdzh2s9JI4hngKBTu1WUk3gXBnX9ZvmLaDl2O9yTk26X7kObf//jrDKCHF+MB1RXlZV4FpiJSu0fxZlbQUOD4aDwV+NPYo/HUjisrqx/EDRCG1nGzobiHEF0RjafuicZToTu0LhpPFfndgzTY03i/rHog8GA0nuri8bi1isZTRwHno3DPioIJ+DJMv0gfjPsiyhYbp/1t3KH3E9bf1S9pVnwZUGZ7HIN6Acftc8jtoXhBvEf06r8SvmPEv/9ozp0PWh7jH9g5NGW2hZps3X7Ifphfnsu3r48u5BMtL8PbWXxZRwAPlEYS/XwYG4DSSOKgysqqZ3BnK4TiucwPFeVlM/H2HfTOy3/7/cUt2h5jNQDest3AVj/+svwlvAv3AGyehC4i9ZBOxl7D/l58WUOBY6Lx1F0HHTklSKeFr5KZZXgNcEo9/8pQ4Bzgomg89UBm2WBYFFF3gCm183VPunQy9grezLqtqT9wcTSeOtaHsQGIxlPbROOpx4FBKNyzptACPhsv0m2+2/Mo5pfpJnD/EbNq4eSTVwA3EL6luhfsc8jtXixrarQ9olcfj7v0Lmyz986wOcCOnc/aFjsvbBdh78CKUzC/PHex4XqhUlFeNg9/Aj5wQ7WzSiOJZ0ojCZtbOKymNJLYqTSSeAK4Avd5TNbN62Cqo+M4Y0ojiSNtFC+NJPpUV1ePA7rZqF+HJbjXKYVOp+hKENyJd7OChgLnOY5zTzSeCsxWMdF4au9oPPUQ7jVyY0Kvobj7lZ8VjaceisZTYdif20GHbDRUEJ6zvdg7szb9gUQ0nhoTjaf293LgaDx1JO79PhGFe1YVWsA3E/M/TMXd+o3Z3XBNYNVhG19bKN2iQ+8nrL8IKJ966r9wA8qwhXzX7nPIbYEM+TLh3l8JX7h320ez7/jU8ji3Ymf23qdfLHjkCwt1wfxegW9h/k2BMLoAf0O+Y4H7SyOJR2wGfaWRRKvSSOKfuP+uDSGYs/aCep3xCN4/RvYFrimNJKZnTrhtstJIYr/SSGIqcHOmvpeWV5SXFfJsYZHASCdjH+D9idbDgNMyy1t928cuGk/9ORpP3QVchPvGaVNntA3N1Dk5Gk89Eo2nhkXjqZKm9mmDDtloFN9Plc3sxefVrNua+gNx4OpoPPWUzaXp0XiqWTSeOicaT43FDd772xpL/hDIJytbXhnbp/LAARNN7880GPcf1MsM1826D9gKdyqrKQmguuMRT85ZMHGI1X8YyqeeOibS88HA79VRQy+A1ofcdtuSGRe/7HczWXtErzkZdw+FsIV7yY9m3zHB5iA7dT6rA2AjaF8E3GKhLlu3H3IYFsKPb19/dprpmmFTUV72WWkkMQr3edOLU0Rrkw3bdimNJH7APYhgXEV52TdNKVoaSWyOe4HUC9icYIZ6uQJ5AEFFedmi0kjCxhto69I68+uZ0kjiS9ytLJ6uKC+r90E+pZHEZrghcgL3+sCPx/gS4G4fxg2iQJ5OKAXpdmB7vF2ymR1r42g89TPwYDoZ+7ftQTOBW2/gcKAFdu5ztuYwoHM0nnoLeDydjP1gYaxGicZTvodVIRSEGXzgzrrdAP+WWPfP/P9P0XiqGngReNbE4zszO/BEYBcU6nmuoAK+jFnAxYZrbt+t35iNZo8/8hfDdZk38bj3Ox3xjI2Ef2B1tbMEuN5C7dWUlBSfU1lZvRnui5Gw6AU0a33Iba2WzLj4MT8b2eugazdyHOdB3Iu2MIV7AF9/NPuOuzwY51rMz4YD+OGLBY8ssFAX4FzML8/VbJqMivKym0ojiSP87oM/ArgjgWNKI4lfcGdaLsY9jOi9ivKyH2v7i6WRxJZAK6AlEMENcjYg+KFeWNyKfwFZNug7GDinNJJYgfuYWAJ8D3wHrMDdo3Mz3DA3+3da4F9wnbWyorxMs4VdgQyxpfCkk7EfovFUdtm816FBbtAH8B4wB5ifTsaM7DcWjac2BroCB+E+d/sRZO4bjac+xA0ym/SGnfgmEG/KpJOxD6LxVPZQPD/3Ueyf+X8cODwT9r0NvAEsBZamk7Hf6vrLmdN5W+NuW9YO95olt654rBADvqm4y5lM/iANBtLYW0v/EO5F/kDDdfdt3/uJrV+bfOJXhuuuZuGkU1ZEej54Ge4T6gCbYxl2GEDrg2/tA1y7ZOYl1k5/rcue0Wv64AZBYXxBny5pVmz9H6ydOp91JLCJhdKLgHst1GXr9kN2ww1sTXoLeMJwzbA7B/dr4ncYkpX9Oc49iGNGaWSt732E8Wc/FCrKy6aURhJX+d0Hfzw+I752UX9LcFcXiEjApJOxedF4KuZjCzWv+0ZE46nlwAe4od8y4Cvgq9qCv8ypsCW410g7Zf6/B+4bXcW11Pdadvxdo/HUl+lk7G9+NpNOxqoygarU30q/G8hKJ2NTo/FUX7/7yNE/8/94zsfG1eMx1n9dNxDvFFzA98rYIyoPHDDRxrKcHlgK+OZPPG5RpyOesfFklAC+xfLhBwDlU0/78ICeD96Y+WPoQj5gw9YH3/oFcMuSmZdYX3qw50HX9gAuxA12wzZrD2BWUVHRyUtfue17m4Ps3PWcLXC/TjZm7638YsHDtpYWn4X52XtV377+7KuGa4ZaZhnmI8DJBCfkq0kBnr9uAG4iuI+PIFpeUV7m68x2EalbSUnRlZWVztbU/xRZm+oK5EasJTTwO8SrL9/f6NAS3bxwC/aWmZvQ3+8GpGGCuvm1bTb2VSvu2m+MzQ1mHwRGW6i7RfvY4zbCkTW8MfW0RcDDhOvQjazDcDexv7v1wbeU/d/Btxz/fwffspHJAfY86Lrt9jzougv2POjaacBVQF9CGu4Bl3/46m1LbQ/kOM492An3FgH3W6jLdh1PLMbOSZezLNQMvYrysnuAL/3uQ4KporxsIu4bXVI/S3C3RJA/FOq1tATUjLJeDu6bF0E+XXXoWn4F3QjcJbq2DmBrCIdwfM2CJFChaDoZ+xh4imD/vEqIFNwMvozp2Fmm+ylgZar2/InHze10xDM2ZtolADr0fuKNhZNPrHN9vSlvTD196gE9h/8p88cwzeTLys7oOxqY/n8H3/wdMB9YiOO8+c5Ll9d7H8a9Drp+M6AdOJ2A9oR3tl6uWcC9H82+fa7tgXbqcvbBuPuT2bDy8wUPW9lfqrraORV3jwqT3kIXBnUqKWl2fGVl1RTMz5qU/HAZ7qm6msW3bp9nQlH5g/bgk8BJJ2OfROOp7ExbBUDmjACeTydjQdnzuBjzr2nzXVAO2VglnYy9Eo2ntsr8Ud9LaZKCDPheGXuE02PAxI8tlN6pa78X1psz/qjfLdQGdy++Zpjfiy/hOM7HwCWG69bqjamnP39Az+HZx14YQ76sbNh3TOb/0//vLzfhwE/Al+B8h7vPw3JwNgDWd2ALYFscZ8PM38mn5XmzgAc/nH37GNsD7drjvPWBKwnZ7L0M0z+/AL9++/qzb1qomxe+Wvjsl6WRxInAKBTiSA0V5WXzSiOJeeixsS5LgNP8bkJE6iedjM2NxlPZ602FBk03ApiaTsam+t1IVjoZq9QefA0WqBl8Welk7IVoPNXd7z4k/Ap5WcGTmV8mDcY9EtqK+ROPexV7G4O2bB97vKOl2mt4Y+rpzwJjCOdy3boclvl1JHAm8HfgGtyTGq8BLsfdD6UvbrCXb+HeUx/Ovu1ZLwarrKx6GHffSxuszd7bpv2JB+HO1DStzELNvFJRXvYm7tL3JX73IsFTUtLsTNxTbKV2S4B/VpSXfeB3IyJSf+lkbAaQRLP8Tfg5nYw9v+6beUd78OWXkmbFV+BuZyXSaAUb8M0ae8TH2AnLbOytles+7OzFlwAu6ND78c0t1K7VG1NPHwU8T36FfIVoFvDIh7Nv82TT9Z26nN0X2N1Seduz9y7F/EmZb6GLgXqpKC8bg/v9Vcgnq/lq4bO/Axehx0ZdPqwoL3vI7yYCKnDLvURypZOxycBkFPI1xfD11iv2ZKVTA2mLgIYL7HP2jOd7/oI7KUQ/q9JoBRvwZSywUbRrvxe62KgLMH/SoIXACkvlE47j3GCpdq3emHbGs7iBpUK+cJoF3Pvh7Nue9mKwnbueuyXuflm2Dob5zeLsvTbAVuu6XSP865vXn/3ZQt28VFFeNhx39raCHG+E5jqjorxsJnps1GZxSUkzG1sLiIhH0slYEhiPgoPGeLikpOii6aN72nr91WjpZMzxu4cQCvSsx3Qy9jnBPyRHAiw0F96WPIedZbonGa5Z093YmcUHsEX72Ii+lmrX6o1pZ5ThbnCukC9cZgHXf/jqrdb33MtyHOdR7IV7i4CbLNUGd3aQjdl7/zRcM+9VlJfdBjyOghwvhGp2QeaxMQs9NrKWACd/tfDZeh8gVYCa+92ASH2kk7EJuK99FBzUzwjg/uYlxWfPKOv1q9/N1CYaTxX53UMI2druyph0MvYBCvmkkQo64Js1tu9PwLcWSjfv2u+FNhbqAjB/0qDFwHeWyieAQe1iI9pYql+rN6adMQW4DffdRQm+mcBZH75664teDbhTl3POBba2OMS3n89/yMpOxdu0P3FPYG8LpX/+5vVnrMxEzncV5WV34B5cVGhBzhJg2iYbb7hem713OcvvZoKoorzsDOBrv/sIgCXAxRXlZYv8bkREzEgnY9OBp1BwsC4jgCnpZOysF8t62jo8sck0g69RQvGmTCbku5bC/Fl9uLi4aOc2rTfZzu9GwqigA76M7HItkwbjHrJg0y3Ym8WXAC7v0Me7/fgAFk87cx7uSb6ezQiTBpsFTGrWrPj4D1+99S2vBt25yzmH455WbHP23t8s1Qa4GvOz90CzXpukorzsn7jf90IJ+ZYAUyrKy3p+NOuJlXvvtuNwQCFfLTZYf72+wDy/+/DREuCOivKyKX43EgKhmqUqkk7GXgHuAB71u5eAGgGMTidjL/jdyLpoBl9+SydjHwMX4+YVhRD0jQDubV5SfPZLL/T69KDOpV8BCvkaqOADvllj+y7FzlTdFl37Pr+nhboAzJ806GPA5ml2iepq53aL9Wu1eNqZ75U0Kx6C+wOu2XzBMguY9MGrtxzx3/TNX3o16C5dz2uJeyKxrXAP4N3P5z/0uo3C23T4627AHhZKv4XdA0EKQkV52Xjc8DjfZyktAR6vKC+7OPuB+689x4tgIpTXGZ/NffqnjTZocSju816hWQJcU1Fe9rjfjYREYDdsF6lLOhl7p6io6FzgTgojOKivR4F70smYZytUmqgEGOp3EyETquuSdDJWkU7GzgCmkN8/qyOACelk7NzsrNl+sf/TG2iNEKoHuEVpCzUHA+daqJvrRuzN4gPYtF3ssSEW69dqUer0XxZPO/Mk3H1CFPIFwyzgkQ9eveU2Lwfd8y8XN692nEewezr1IuBsi/Wvws7svZe/ef2ZQO4JEzYV5WVLWqzXvDuQIj9n8y0GLswsS67J9sVTaC/OPp0z8pfN/rThQbgzZfPxcVGbxcDJFeVlz/vdSIgEesN2kbq8PKbXr+lk7EK0ZBfc+39nUVHRBelk7F9+NyNWBX4PvtpkZpSOIj9/VkcAj6eTsdpe94diSXWQKOBzjcb8Ml2Ajbv2fX5fC3UBmD/p+F9wp+zaCvmOBI5oF3usv6X6a7V42lnPAjejZYh+mgW8CJzzwau3eHJSbq7lv/3+NHCoxSEWAXd/Pv8hK3tabtPhr3sBrS2Ufgu41ULdgvXF/FG/VZSX9Sa/9uVbArzYrFnxIRXlZdPquI0unNbig1eeqK4oL4uT/4eyLAHSJSXNelWUlxXy0uTG0M+QhFpmye61uKsC8jE8WJcRwKPpZOzCl8f0+snvZhqoksL8nhWkdDL2Eu42XQ+TP9/3h4Gr0snY7Do+H8pA1k8K+IBZY/tWAe9ZKD0YOMdC3VUWTDp+FvCzxSGOBI5vF3vsQItj1GnxtLPmFxUVDcGdMq/ZfN6aBUz84NWbD/vg1Zvf9HrwnbucexGwk+Vhvvt8/oOjLNa/ETuz9/79zevPfGahbsHL7Mt3FO5BMmEOdJYAj1WUlx329Wuj13aYlO0Lp7y4zsjMfjyH/FzKvQR4sqK87KCvFj7r2fYLeUQvPiT00snYx+lk7CzckO9R8ic8WJsRwPXAuelkLJRvbOiQjcKTTsbeSydjpwIvEO6f0xHAVc1Lik9LJ2PL1nK7vLiO9FKJ3w0EyIO4+2SZXpLaomvf59vPmXD0a4br5roe2BgYaKn+kQDtej3606Ipw8otjVGnN6ae+RNw8v6H/fOwzIf6ed1DAZoJ3PTBqzfP9GPwnbucOwSIY3ffvQW4G9dasU2Hv3YEWloo/RbuzFaxpKK87D/AIaWRxMm4Wy3YmIVpyxJgGXBGRXmZzX1a6yu0S3Rrqigve2m7ToM6rvh95UO4z01helzUZgnwLe7y7XwMLr2iFx+SN9LJWDlwcjSeyl5z5+P+biOAH3H32vvI516aRIdsNEpebKuQTsamROOpfwMrgBaE52d1BG7Pd6STsff9biYfKeDLmDW2b0WP/uNtzIgZjPsC50QLtQFYMOn4jzv2efrZzB9th3xXLJoyzMZsx3V6c/rZ0/c/7J/lwP+AbVDQZ0Ma+HezZsXnvvfyDb7MSti563lx4FTsh3tln81/0ObMxGuwM3vvy28WjXrDQl2poaK87JHSSOI54DrgYIId6CzBnUl0o/ZPs+eL+aOqgZNLI4n9cWfotiTYj4va6LFiVt6E2CJZ6WRsejSeehX3eqkj4QkP1mYE8D1wfzoZC8IbYCYUkR/fGy/lzcFImYD6jGg8tT/ucu2gH7oyAngqsy1AfeVFIOslBXyrGw7sgPlZfMVd+z4fnTPh6LThuqssmHT8hI59RsZt1c9wQ77YYxcsSp30ieWxavXm9LO/AU7d/7B7u+JeVBejoM+ENPArcNX7s27ybSbHzl3POxi4CLvhHsDPn81/8E5bxbftMPRwYCsLpd8CajsoQSypKC/7ETi3NJLYhGAGfUtw3wl9uKK87CG/mykUFeVlbwK9SyOJzrgH6exIsB4XtVkCLAfurigvs7k1QaHJmxeLIrnSydhy4OFoPPUIMA3337+gBwg1ZZcwvo+7z95XfjYjYkM6GXsTODUaTx1AMIO+EbivYR5LJ2MN3edS22A0kAK+HLPG9VvWo/94G5vtDwbo0rdsztwJCZsP0mtwp+jamsUHcKTjOFXtez963muTh31hcZy1enP6OXOAOfsfdu9RmQ8p5Gu8NHDP+7NuHOdnEy27ntcWuBr74d4C4ELLY/wdO7P3vvtm0ai6DksQi3KCvs2Ak3Hf8NgY/0KdJbj7r95VUV72XBPq2F5emNfLFzMHUvQsjSR2B84DeuDe5yCFfUuApcDwtRy2Io23vt8NiNiU2eetDCiLxlM7A28C++I+1wUpRMg1AncLgqfSydjbfjdjkYN7X4P6fQiivJ0Rlk7G3sAN+vYAvsadbODXY2ME7mScBbjBnvaL9IgCvjXdC2yO+Vl8g3Evsm8xXHeVBZMGf9ixz0jbS3UBEtXVDu17P3rua5OH+boh95vTz3lhv8PumQV8DLQC+vjZT8ikgdeKioquXvrKDb/62UjLrue3Be4GulkeagEw0ubS3G07DD0N2NBC6bdwlwSKjyrKy74HbgNuyyzTPAM3lPYi1MkurXwReKKivOwdAzXfAg7Cfcc3q4Q/lh1m/1+Fe1FckrltNrhbyR8Xy9m/l51dXTBLFyvKy5YCZwGURhIHAsfjLmvzK+xbgvvv4jSgrKK8rJAPzziZPx6TsPpjNlcV7om4NR+32cd+9rTcmm/ULjfTplGn5fw++zMLqwfu2a9JMQ3/+Q+TszDz/c++Zgrb/TcqnYx9gvtaiWg8tR1QDuyH/zOGsmHCUmAeMCedjOX97Np0MuZE46mbcF9frsR9DOc+R+X+Ofdxn31cF9dy+9yfez88jLuqri7NcVcuZJ+Ta/bZLOfjzXL+D+59DdtJyQ2WTsbeAy6LxlN/wj00sSPe7NOXnTH7HvBs5vmiqZYDe+b8uanf/7x+4xmgyHEUptbUvf/4+8A584+POKv/brWvWY3P5fyZGl9bB2cUcMncCYnPzXW7po59Rj6C4wyrOXrN36/6SC33p+a9yr1dzn/LmjUrPnfhpJMC8cJhv8Pu2RnHuQR3T6Q+AE4t93vVn+r4Pmb/XPvXp2bVur4+NWs27Wte261W+xu19Fhbt5kbp3EvyG5cOuuGtZ2u6YmWXc9vD9wJTrcGf81zbrvWr88ft0t9Nn947yY3XYftOgzdzoEJQDunju/jmt+R1W+3lp/bWV8vGuXLadaybqWRxJ+BXrgzuPbKfLipwU72FN+lwBxgWkV52b+aWFM8lHlcHIIbAu+Le0FqOvDLPk4+xn0TYwHwckV52e+GxxERqVU0nmoGHIAb9u0FbJH5lI1AIRsifA98gBsmzEsnYz9bGEskL0TjqRa41yLtgd0xE8rn/iz+C5i5jhNxxQMK+GrRvf/4PcG5nFWz+IwFfAD3z52QOMtkvzV17DNyCxznPme1WXxWAj6AsqKiovMXpYZZDS0bYr9D794ZOB/Y3cHJmdFX8AFfGngNx7l96awbArEHScuu53cDbgK6NeprnnPbegR8C4qKiuLL5j1g7bG6bYehzwEJd0yjAd9icC79etGo6caaFatKI4mtcQOd3XDfedwRd0nvJsCmrP4O4s+471B+B3yKu1fQUuA/ATkJVwwpjSRKgH2APXDfjNoK2BrYFtiINR8bWStwHx/f4l5If4Z7WvJ7uI+Tb2z3LiLSENF4aj1gZ9znt21w9znfAjdY2Bh3eXtdq8mWAz/gnnb7M+5yw8+BL4FP0smY3sAQaYLMCcy74V6L7Ij7c7px5teGrP6zWQn8hvvz+B3u9cenwHvpZMz3ySKyOgV8dejef9xduPvpYDjgG4Ub8s0z1+2aOvZ+qpMD57Iq5LMW8AGMAefS16ecEqijrvc79O5NHZyzcaclw2phX8EEfDMdnGrcJX13L33l+sBsVNqy6/k9gBtYtSzXasC3AMe56rP5w63tP7Vth6EHA7eS2XvPcMA36+tFT2v2noiIiIiIiNRKAV8duvcftyvuyXhDDAd8ACOLijh1zviE1X1bOvR+aiAwAEhYDvgAZwxw3etTTrG2t1lT7HvoXV3AOQN3doS7fDe/A76ZuO90PvDfV66bT8C07HrBweBczWp77lkL+BY48MJn8x64vUlNr8O2HYbOJeeAEIMB32Lg0q8XPa3ZeyIiIiIiIlIrBXxr0b3/uDuACywEfIBz/dwJx/zDWLN16ND7qUeAYR4EfABjHLi7fMops5vYtjX7HnrnDrhLr9s5jtMCiLmfyYuAbybukoaXwXnyv69cF8gp0y27XtAfuBCcGgdqWAv4UsvmPWBt3z2AbTucdCk4CXJOzjUY8M38etHTh5jrVkRERERERPKNTtFdu7tw94oYYqH2rl36Prfn3AnHvGuh9ipFRUUXO46zMXZP1c06EiiO9Hxoy/Kpp47zYLwGe+vFCz4jcxLpPofc0Qr3pK12uBufx3xsrbFyQj3K/vvKtYHe2HSXrhcMw/15sn1abtbskmbFg20OsG2Hk/bD3Xcvsq7bNsJi4O8W6oqIiIiIiEge0Qy+dejef9wN4FyR/bPBGXwAj86dcMzJxpqtQ4feT+2fuQ+JnLFtzODLfn3GAmPLp546sqm9e2WfQ27fCuiJewLm9pnvlhv4BWsG38zMH98DZxYw5b30NT/UeccCZJduF16M4/R1cvbcW53xGXwLgJOXzXvgrSa0vU7bdjjpZSBasy9DM/jGfr3o6biZTkVERERERCRfKeBbh+79x20Fzm1kZvEZDvhGAaPmTjhmisGWa9Wh95OHASeRsx+fxYAPYCzwbUmz4rMWTj55RZPvgMf2OeS2nRyIAhEcZ1dWm+HnWcD3YuZ2K4H/OLAAnFnvpa/+shF3yTd7HXxZ899WrHwW2AbH6VZnUGc24FsAzo3L5j0woQmtr9O2HU46HzgeiFgI+BaDc9TXi54O1OE1IiIiIiIiEjwK+Oqhe/+xFwB3gPGAD9yQ7zrbS3UBOvR+8mjgqMxeYbYDvqwycC4vn3raB03p3W+tD761BPgz8H/gtHTcI8V3AGfjVTdynMOhwQHfizmf+w5YBs6nuEePL3j35SsDveR2XXbpduFewL3AoUCNAMtawLcAeHrZvPvva3zn67Ztx2FtcZyHWbU013jA9/DXi0aeaqZbERERERERyWfag68eiouL7qmudloDQy2UHwRUAidaqL2ahZOHPN+h95MH2h6nhgTQPNLzwXvKp572isdjG7Nk5iWVwL8zv9bwfwffvCGwPbAJsHnmw5vUuFk18EPm/98BPwJf/+flf/xqo2e/7dLtov7AhXi33x644d4E2+Fexp3Y2XcPYHFRUdEllmqLiIiIiIhIntEMvnrq3n9sO+AsB4YYnsEHMMpxnAnzJg4sM9VvXQ466pmiX5b//jAwzKMZfNmPjnVg0htTTxvR6OYlNHbpdtGFQH9qnpRrdwbfAnBeXjbv/ssb23d9bddx2BUODMBx2uX2uFpbjZ/Btxi48+tFI0Ozh6WIiIiIiIj4SwFfA3TvP/YBB063EPDhOM4o4K55Ewe+bqjdOnXrP3KD31dWPeTA4Mzga/RlIeDDgbHgrASufmPq6bXOhJNw27XbxTuB84ADmwHdagvjLAZ8qWXz7uvdyNbrbbuOw/oC/3CgXV3PBe6fGh3wpb9eNPIgYw2LiIiIiIhI3iv2u4GQuQN40lLtQcD5Xfo+t5Gl+qvMHjd4eXFx0fnAaNtj1TAAd8nuDQf0HN7f47HFsl27XXwE8DTQB2+X5QLM3HCD9ayfNrtDp5O3B64A2q3rto20GLjYUm0RERERERHJUwr4GuDVcQPeBz62OMQgx3FutFh/lfkTh3xbVFR0KWB9WXAtBgAnHNBz+CMHHP7AVj6MLwbt2v2S7XbtdvELwEVADx9amLnB+usNeO+lO62f1lztOCOAjhaHKP960chFFuuLiIiIiIhIHlLA10DFxUXXYW8WH8AWnY949nCL9VdZOGnIJ0VFRZfjX8g3DHjogMMf6OPD+GLArt0vORp3JuiR+BfuHfney3f+ZHug7TqefAmwhcUhFjVrVny2xfoiIiIiIiKSp7QHXyN065dsC5wLDDa4B1/un0YBN8+beOzbRhpeh/axx3cHbgASlvfgW/PvubcdC/zq4Ny0eNqZSxpzH8RbrbpfsqcDN+EGXj3q3mPO6h58L67fovnR/335zh8a2n9Dbdfx5KOBS+CPQzXWfKw3aQ++xcCVX7321EQjDYuIiIiIiEhBUcDXSN36Je8CzrMU8AGMKioqOnfuhIHfmuh3XTr0fmJHx3FuA2fg6t15EvBlPuOMB94rKir6xxtTz7C+3FIabrcel23oOM5N4LRxcmfseR/wpTbcYL2j3p15x/IG3oUG267jyfsCI4B2a/xkmAv4xnz12lNHGWlYRERERERECo6W6DbeDcBIi/UHOY5zs8X6q1k4+cRlPh28kasfcLHjOM+2Ofz+mI99SC1adb90gOM4k4Fz8Gc5LsA8YMwmG6/fz4twr2W3MzYFHsDeoRoA5cXFxSdZrC8iIiIiIiJ5TjP4mqBbv+RB4PwVGAzGZ/ABjAJn4ryJxz1npuN163TEE5tVVVXf62Tuk8cz+HI/Mx6cauDhxdPOmtqgOyFGtep+WSfgb+Bswqpgr8Z3y5sZfPOAqZ/Ovffaht2Dxtuu4ykTwcnZI9L4DL7F4Nz41WtPPW+gXRERERERESlQCviaqFu/MfcBZ4KVgA9wRjnw+PyJx8000G69dOv/5Hq//V51P7A5OEfmNJnTnfWAL3vb8cAKx3HuenP62fMbcj+kaVp1v6wbcCmQCfbWsszUfsA3z4FnP5177z/rfQeaaPuOp/zDgb65++5ZCPjGfvXak3ET/YqIiIiIiEjhUsDXRN36jdkcuAcYbCngw3GXzV47f+Jx/zbQcr21i40YCk4M94RUvwK+zM2c8cBy4L43p589p/73Qhpqtx6XdwaucJzcGXvgY8A3D5w7Ppl775h63QEDtu94yhnAX50a++4ZDvgWNWtWHP1i/uO/mOlaRERERERECpUCPgO69RvTCTjDqXGqrsGAD9xDNy6cN+HY/5noub7axR47GjgGONLngC/72+zS3ZnAw29OP2dl/e6JrMtuPa7oDc7ZQAsguuZzgy8B32zgok/m3rOgHnfBiO07njIAuAJot+Zj1ljAtxi49KvXnpxuomcREREREREpbAr4DOnWb8ytDlxsMeADGFnSrOj02eOO9XTGT7vYYwcCZ+O4y3V9DvhyPz4eKHdwHvnX9HO/WNf9kDXt1uOKrYGzgW7uR5xo9nM+B3zzgB+Li4tP/mj2XZ+u/V6Ys32nU7vjOHeSOVTDUsC32HGX5nq2l6CIiIiIiIjkNwV8hnTvn1yv2nEeBmfIqg+aD/jAcR6dP2nQyU3tt6HaxR7bA8e5BhgYoIAv+/cmAd8CD/1r+rnz1nY/xLV7j791BE53cFoC0T8+U9fXfPXPWQ745uE4kz6Ze8+Na7sPpm3f6dR9gRE4f+y5Zyngm/W/1548sMkNi4iIiIiIiGQo4DOoa78x+4BzCdkTaO0EfKOBqfMnDXqy6R03TMc+Izaqqqq+04EtyD18w23sj/96H/BlfzspU68ceOZfL573bt33pvDsfuDfWwEn4TgdgWZAtP5f89U/ZzHgmwf885M5dz9b9z0xb6eup+9WVVU9Eui8+mPyj/9S4/eNDPjKwRn8v9eefMdA2yIiIiIiIiKAAj7juvZ7IQYMBAZbCvjAPXRj3PxJg55rescN17bXo0eBM5Ds4RtuY3/817+AL7feJGClg7MIeOatF8//qNY7k+f+fOA/Shyck4E+wIZAtHFf89U/ZyHgmw3OCgcu/GTO3W/WcXesaNntzK1XVlaOIbtM2V7AVw7c8r/Xnigz0LaIiIiIiIjIKgr4LOja74UHgNMtBnwAo8F5bv6k48c1sd1GadvrkbbAJUAi09gf/w1GwJf7uUlAFThvAi+89eIFb615j/LHnw+8cm9w+gD7Ats7OAevdoPgBXyzgUkfz7nrlpr3xbbdDjx7i+UrVr5Azt6DlgK+cmD8/157QvvuiYiIiIiIiHEK+Czo1n/Mpo7j/BPHGZz7ccMBH+CMdmDEgknHv9jElhulfe9HN6iudm4Dts0u2Q1owJf79yZl/vC54zgLgJfennHhR4TYHtGrtnAcpwdwMLCX+9E/Qr01vq7BCvhmA9d/POeuaXhstwPP3uy3FSvHOhCljseQwYAv/b/XnjioyU2LiIiIiIiI1EIBnyVd+73QBse5gOx+fFgJ+HDc5bp3LJh0/KImN91IbXs9EgXnLODIEAR8NWumMn9aCrwFLAbeenvGRSsIqD2iV+8IdAOnM7AnUOI4NWbpsZavazACvtng/K+oqOiMj2bf+RUe2+3Aszf5bcXK8UB0jcel+YCvvAj6f7nwcc9OAxYREREREZHCooDPoq59n++Du4R1MFgL+ABGFxUVnTV/4qBvm9x0I7Xt9fAmwG0ObIXjDFj9s4EO+Gr7XAp3P7gPgXdxnPeAfy2ZeUkFHtrzoGs3xnH2AHYHWjuwLzibZD59cH3DuAAGfLOBez6ec+cL+GD36HmbLP/tt/FkTg+2HPCVA1f8b+Hjns9QFBERERERkcKhgM+yrn2fvwO4AKwGfADDF0w6/oymddt0kV4P98JxTgZyQr7QBXyr/83VZvoBOF878BnwOTjfAj8C3+I43wI/OO4Jtd+CU/zvl65YsfdfbiwBZ31ghQPNgY1wnE2BDXBPJN4U2MaBbXGXO28LbJwZ+9DVO6wjbApHwDcbx/mQoqKzP5p9xw/4oFWPs0tX/F45hpw99ywGfOXAI/9b+PiDTWxbREREREREZK0U8Fl2YPyFDSornfuAoZYDvtHgXLlg0uD/NrXnpor0fGgn4EpgC2BAngR8dVRdc+ycz+XM2nIOX+1ztYy9tpq13SpkAV8auP6j2XfMxCctu521Y2Vl1Sigx5pfbeMBX7mDM/l/Cx+/sql9i4iIiIiIiKyLAj4PdO37/PbAzQ65h24YD/gA58YFkwb/rWndmhPp+VBn4DxwElCQAd8a9Qsw4JsNzCspaXbp0vStvj3Z7NjlzL2d6uqHgW6ZvlZ9zlLA9+KXC0cc1pSeRUREREREROqr2O8GCsGcCUd/DtwNjLQ8VCvL9RukfOqp85o1Kx4IXAWM9bsf8dRsoAw44aPZd1zia7jX+YwDHMd5nFXhnnXzmpc0O9ajsUREREREREQ0g89LXfqW9QIGub+szOAbDZy6YNLgH030a1Kk54MtHfg7OJlluxmawbfm58I9g28W7gElN380+/aX8NmOnc84FLjOgY51zbYzPINvUVFR0aAvFjz2XhNbFxEREREREak3BXwe69K37EjcfekG5X7cUMAHsPOCSYM/NdKsBQf0HJ5ZtktzYIACvlo+F96ALw3c++Hs2wIxW3PHzmccD5wFdFzbclqDAV85cN6XC0e82qTGRURERERERBqoxO8GCs3cCYkxXfqWrZ/546C13rjhRgNfG65p1BtTT58HzDug5/DDgGrcZeID1v63JOBmAeni4uLr3p91S6XfzQDs2PnM84CBQEePhiwHblG4JyIiIiIiIn7QDD6fdOn73APA6dk/m1qiu2DS4FDt/XXA4Q/0AYYCAzSDr+6atd0qADP4ZuHutXfjh6/e+gsBsWPnM68CeoGzKtyzPIOvHBjx5cLH7m9i6yIiIiIiIiKNohl8PlmvefE5v6+sboEbbpnyb4O1PPHGtDMmHXD4Ay8CFwIdgH4+tyTrNivz69YPX731J7+byWrZ7ZztqqqqHgc2w9uZe2UK90RERERERMRPmsHnox7x5zetrKy+ExhqYAbfaHD+tmDS4A9s9OqFNoff3xwYBhwMlICzKuzTDD7fZ/DNAmcl8CJwzwev3vIbAbJT57M6OHAHODkn5a51v7wav2vUDL5yHGf8lwsfu7YpvYuIiIiIiIg0lQI+nx0Yf37TlZXVdzqOkzOTr1EB350LJh1/oZ0uvdfm8Pu7gnMWsAHQTwGfbwHfLOBn4J4PXr15OgG0U+ezjgXOdqBzPZbT1v65hn/NFznw4pcLHr2iCa2LiIiIiIiIGKGALwCiRz6/4Yrfq/7JquW6DQ74RhcVFZ08f+Kgn6026oM2h9+3D3C24zjbsGr5rgK+mrezEPClHcdZCtz/was3Lyagdupy9hU4Th+g8zpm25kM+BYB6S8WPHpxE1oXERERERERMUYBX0BEj3x+gxW/V90HtAAn53TddQZ8o4EbFkw6/m1PGvXJ/of9cxPcU1EPA6eEnL36FPAZC/jS4KwApgMj3p910/cE1E5dzt4NGA5sjON0hnV8fcBUwLcIeOmLBY9e2vjuRURERERERMxSwBcwnY8YfQw4RwCZkK/OgG80OCsduG7BpOP/62mTPtv/sHv3BE4C9gBwcvbqU8BXy+fWHvClM78tBx59f9aNgT+oZacuZ/cFLgM6AzW+7lYDvkXgKNwTERERERGRwFHAF0Cdj3h2b+BsYBNwBtUI+EYDVcBT8ycNCuSeaF7a/7B72zg4g8mEfZnlmqso4Ks14EtnfvcvB2fk+7NuXEQItOpxfsnKyqpHwdmDbLgHXgV8i4DpXyx45G+NvwciIiIiIiIidijgC7DORzy7KTjdHdgaKAG+xnHK508a9LHfvQXRfofdsz+OcyzQOvOhPgr4VnWbBlYCr+E4Y5bOuqGcENm5yzmdHbgZ6LHG98p+wLcISH2x4JGrGtm+iIiIiIiIiFUK+CQv7Xfo3TsBvRyc9sC27kdrzO7L74BvZuY3nzs484CJS1+5fhkhtHOXc88G51hn1aw9TwO+ReBM+GLBI9c1tn8RERERERER2xTwSUHY99C79gTnEKANmcDPWW05b+gDvmyg9zFQDs7U/75y3fuE2M5dzu0A3AhsCE7n2r+u2Az4Fjkw7osFD9/QmP5FREREREREvKKATwrSvofeuaXjOJ1wl/PuC87mmU/F3P8FOuDLhHnOMuA9YInjOHP/+8q1X5MHdjvwwpKVKyvvBiLkzNrzOOBbBDz5+YKH72v4PRARERERERHxlgI+kYx9Drl9Q2A3YHdwdnVgd2B7HKd5zs1iHgR8L+bUXAF8Cix1YBk4HwDvvJe++teG3btw2LnreQcDf8dxoqt/xtOAbxFw6+cLHn6+Qc2LiIiIiIiI+EQBn0g9tT741lJgO3B2dNyDT8jM/GsBtMBxNgGaO7AhsBE4zXEPtvgFnGKg2oGf3b/mAHwHVIPzDfC9Az8A/wPn03dfvvJbb++dv1p2PX8ncG53YCegc71nTYLpgG8BjnPp5wsefqWh90FERERERETELwr4RMRXLbuefwowGJxuDV4WnXNbAwHf7KKiohM/m/dgqPcuFBERERERkcJT4ncDIlKYWnY9vw9wMVAMdPOxlUXAt+uVlAz8aPb93/vYh4iIiIiIiEijKOATEU+17HpBF+BKYCP8DfYAFgAvfz7/oct97kNERERERESk0RTwiYgndul24f/hONcC2+B/sAduuPf05/Mf1Em5IiIiIiIiEmoK+ETEql26Xbgf8Ddge4IR7IEb7t3w2fwHJ/rdiIiIiIiIiEhTKeATESt26XZRW3AuIXjB3vdFRUUnLps3/Eu/mxERERERERExQQGfiBi1a7eLujhwObAZwQn2wA33xn02f/jNfjciIiIiIiIiYpICPhFpsl27XdwcGAYMAFoAPfztaA0LgLs/mz98tN+NiIiIiIiIiJimgE9EGm3X7pe0BE7BnakXtFAP3GDvZ+CMz+YPf8/vZkRERERERERsUMAnIg3WqvslBzrw/+3dT2jedwHH8U/XFKmIF1kp7B+ucX1qHdtFENy6JqWbevIm7CQDD4oePNk56axNdK5utevWgzjx4GEnUfCgaDVLnuQBRdGVMdfZpEnq2JygDlHKSr8e8pS10VUdzfN9vsnrdUhCfs8TPjn8Lm++v+RzSa7PcIa9ZCXuff9c78SjtYcAAADAWhL4gP/JrXd/YXdWTuvd2f/WsIa9JJlO8tC53olu7SEAAACw1gQ+4C3deveB0ST3ZyXmbclwR71k5dTeqS0jI59emDl2ofYYAAAAGASBD7jCjj0P7kzyiVLKXRnOf5jxVrpJvnKu99RPaw8BAACAQRL4YIPbseeLI0n2Jbk3KXck2Zxkb9VR/59ekvmRkc2fPTtz7K+1xwAAAMCgCXywAY3ueWg0ycdKyoeTbEtbQe+SXpI3khxe7j35s9pjAAAAoBaBDzaA0Xu+dGOSjyT5YErZkfZO6a3WS/K95bnjJ2oPAQAAgNoEPlhn3nfPwZuT8qEknSS7S8q2/qW99VZdM70kLyd5cHnu+Eu1xwAAAMAwEPigUbftfXhLktuT3F5K2Z1kV5Kt/cv7qg1bG70k55NMLM8dP1l7DAAAAAwTgQ+G2M69h96d5LYk20uyLSk3JrkpyXv7L1lvIe8/6SX5zvLcE9+uPQQAAACGkcAHQ6AzdnhrSe5NckdSbklyQ5Lr+pf311tWVS/JqSQHl+aeeLX2GAAAABhWAh9U1BmbuDkpB5KMZuOGvNV6SU4nObQ0d2yh9hgAAAAYdgIfVNIZm7g/yScj7F3Szco/0Di4NHfsxdpjAAAAoBUCH1TQGZv4fJKPRtxLVsLea0m+vDT7zedqjwEAAIDWCHwwYJ3xyY9H3EveDHtHFmeP9mqPAQAAgFYJfDBAnfHJrUk+k40d97pJFpI8tjh79He1xwAAAEDrBD4YrAeyceNeN8l0kqOLs4//ufYYAAAAWC8EPhisfbUHDFg3yYUkP0zy1NnZx9+ovAcAAADWHYEPBmTX+OQ7kryz9o4B6SZ5NcmJs93Hfl57DAAAAKxnAh8MzvYk99UesYamk1xMMpfkW2e731isvAcAAAA2BIEPBmdL7QFrZDrJYpInF7pHfll7DAAAAGw0Ah8MzitJfpL1cYpvOsn5JD9K8t2F7pHXK+8BAACADWtTKaX2BtgwOuOTP05yX66478plH6/86vLXrX7VFe/4t/v48vetulaucu3qP/NS1JtKyjPzM4/OBwAAAKjOCT4YrBfS1gm+6ST/zMrf1XtmfubrpyvvAQAAAFYR+GCwnk6yO8n+2kOuYiorjxP/IskP5mce+VPdOQAAAMDVeEQXBqwzPvl0Snngze9UfUR3qv/lX5L8pv8Y7tyZ6a9d+C+/BgAAADAknOCDAdu0adOBUsoNGfyjulP9z+eTvJjk90mmzkx/9YUB7wAAAACuISf4oIL3j09ef7GUR5LclJT9yZqc4DuZ5PWS8tskp5L86g/PTpy7BvMBAACAISLwQUWdsYkPJOVTSXb178T9byPwnezfx39PcibJ80l5LsmvX3r2sBscAAAA1jmBD4bEzrHDO5LclZRbkmxP8p6UsjnJu5L8oyQXk/K3JK8leTkpryRZTrJ0eurQH6sNBwAAAKoS+AAAAACgYdfVHgAAAAAAvH0CHwAAAAA0TOADAAAAgIYJfAAAAADQMIEPAAAAABom8AEAAABAwwQ+AAAAAGiYwAcAAAAADRP4AAAAAKBhAh8AAAAANEzgAwAAAICGCXwAAAAA0DCBDwAAAAAaJvABAAAAQMMEPgAAAABomMAHAAAAAA0T+AAAAACgYQIfAAAAADRM4AMAAACAhgl8AAAAANAwgQ8AAAAAGibwAQAAAEDDBD4AAAAAaJjABwAAAAANE/gAAAAAoGECHwAAAAA0TOADAAAAgIYJfAAAAADQMIEPAAAAABom8AEAAABAwwQ+AAAAAGiYwAcAAAAADRP4AAAAAKBhAh8AAAAANEzgAwAAAICGCXwAAAAA0DCBDwAAAAAaJvABAAAAQMMEPgAAAABomMAHAAAAAA0T+AAAAACgYQIfAAAAADRM4AMAAACAhgl8AAAAANAwgQ8AAAAAGibwAQAAAEDD/gXwl5bhUA255wAAAABJRU5ErkJggg==;" vertex="1" parent="1">
          <mxGeometry x="290" y="140" width="182" height="61.81" as="geometry" />
        </mxCell>
        <mxCell id="d4vqSrKACNZoaVYgLxBN-5" style="edgeStyle=orthogonalEdgeStyle;rounded=0;orthogonalLoop=1;jettySize=auto;html=1;entryX=0.52;entryY=-0.071;entryDx=0;entryDy=0;entryPerimeter=0;" edge="1" parent="1" source="d4vqSrKACNZoaVYgLxBN-3" target="d4vqSrKACNZoaVYgLxBN-1">
          <mxGeometry relative="1" as="geometry" />
        </mxCell>
      </root>
    </mxGraphModel>
  </diagram>
</mxfile>
